<mxfile host="app.diagrams.net" agent="Mozilla/5.0 (X11; Linux x86_64; rv:109.0) Gecko/20100101 Firefox/115.0" version="28.2.7">
  <diagram name="Страница — 1" id="4SZr1kQN4hUQH56ygtPJ">
    <mxGraphModel dx="2360" dy="2349" grid="1" gridSize="10" guides="1" tooltips="1" connect="1" arrows="1" fold="1" page="1" pageScale="1" pageWidth="827" pageHeight="1169" math="0" shadow="0">
      <root>
        <mxCell id="0" />
        <mxCell id="1" parent="0" />
        <mxCell id="1DZKK_g03vxS0OhxYEbi-1" value="&lt;font style=&quot;font-size: 20px;&quot; face=&quot;Times New Roman&quot;&gt;Система обмена сообщениями&lt;/font&gt;" style="whiteSpace=wrap;html=1;aspect=fixed;fillColor=default;gradientColor=none;opacity=60;" parent="1" vertex="1">
          <mxGeometry x="230" y="-50" width="290" height="290" as="geometry" />
        </mxCell>
        <mxCell id="1DZKK_g03vxS0OhxYEbi-7" value="" style="endArrow=classic;html=1;rounded=0;" parent="1" edge="1">
          <mxGeometry width="50" height="50" relative="1" as="geometry">
            <mxPoint x="140" as="sourcePoint" />
            <mxPoint x="230" as="targetPoint" />
          </mxGeometry>
        </mxCell>
        <mxCell id="1DZKK_g03vxS0OhxYEbi-8" value="&lt;font style=&quot;font-size: 16px;&quot; face=&quot;Times New Roman&quot;&gt;Клиенты&lt;br&gt;&lt;/font&gt;" style="text;html=1;whiteSpace=wrap;strokeColor=none;fillColor=none;align=center;verticalAlign=middle;rounded=0;" parent="1" vertex="1">
          <mxGeometry x="50" y="-20" width="100" height="30" as="geometry" />
        </mxCell>
        <mxCell id="1DZKK_g03vxS0OhxYEbi-12" value="&lt;font style=&quot;font-size: 16px;&quot; face=&quot;Times New Roman&quot;&gt;Политика безопасности и шифрования&lt;br&gt;&lt;/font&gt;" style="text;html=1;whiteSpace=wrap;strokeColor=none;fillColor=none;align=center;verticalAlign=middle;rounded=0;" parent="1" vertex="1">
          <mxGeometry x="190" y="-160" width="120" height="30" as="geometry" />
        </mxCell>
        <mxCell id="1DZKK_g03vxS0OhxYEbi-15" value="&lt;div align=&quot;center&quot;&gt;&lt;font style=&quot;font-size: 16px;&quot; face=&quot;Times New Roman&quot;&gt;Законы&lt;/font&gt;&lt;/div&gt;" style="text;whiteSpace=wrap;html=1;align=center;" parent="1" vertex="1">
          <mxGeometry x="472.5" y="-140" width="60" height="40" as="geometry" />
        </mxCell>
        <mxCell id="1DZKK_g03vxS0OhxYEbi-16" value="" style="endArrow=classic;html=1;rounded=0;" parent="1" edge="1">
          <mxGeometry width="50" height="50" relative="1" as="geometry">
            <mxPoint x="220" y="280" as="sourcePoint" />
            <mxPoint x="240" y="240" as="targetPoint" />
            <Array as="points">
              <mxPoint x="240" y="280" />
            </Array>
          </mxGeometry>
        </mxCell>
        <mxCell id="1DZKK_g03vxS0OhxYEbi-17" value="&lt;div&gt;&lt;font style=&quot;font-size: 16px;&quot; face=&quot;Times New Roman&quot;&gt;База данных&lt;/font&gt;&lt;/div&gt;" style="text;html=1;whiteSpace=wrap;strokeColor=none;fillColor=none;align=center;verticalAlign=middle;rounded=0;" parent="1" vertex="1">
          <mxGeometry x="160" y="260" width="60" height="30" as="geometry" />
        </mxCell>
        <mxCell id="1DZKK_g03vxS0OhxYEbi-20" value="&lt;div align=&quot;center&quot;&gt;&lt;font style=&quot;font-size: 16px;&quot; face=&quot;Times New Roman&quot;&gt;Метод шифрования&lt;/font&gt;&lt;/div&gt;" style="text;html=1;whiteSpace=wrap;strokeColor=none;fillColor=none;align=center;verticalAlign=middle;rounded=0;" parent="1" vertex="1">
          <mxGeometry x="400" y="-150" width="60" height="30" as="geometry" />
        </mxCell>
        <mxCell id="1DZKK_g03vxS0OhxYEbi-21" value="" style="endArrow=classic;html=1;rounded=0;" parent="1" edge="1">
          <mxGeometry width="50" height="50" relative="1" as="geometry">
            <mxPoint x="429.79" y="290" as="sourcePoint" />
            <mxPoint x="429.79" y="240" as="targetPoint" />
          </mxGeometry>
        </mxCell>
        <mxCell id="1DZKK_g03vxS0OhxYEbi-22" value="&lt;font style=&quot;font-size: 16px;&quot; face=&quot;Times New Roman&quot;&gt;Серверное приложение&lt;/font&gt;" style="text;html=1;whiteSpace=wrap;strokeColor=none;fillColor=none;align=center;verticalAlign=middle;rounded=0;" parent="1" vertex="1">
          <mxGeometry x="396.25" y="290" width="60" height="30" as="geometry" />
        </mxCell>
        <mxCell id="1DZKK_g03vxS0OhxYEbi-23" value="" style="endArrow=classic;html=1;rounded=0;" parent="1" edge="1">
          <mxGeometry width="50" height="50" relative="1" as="geometry">
            <mxPoint x="530" y="280" as="sourcePoint" />
            <mxPoint x="512.5" y="240" as="targetPoint" />
            <Array as="points">
              <mxPoint x="513" y="280" />
            </Array>
          </mxGeometry>
        </mxCell>
        <mxCell id="1DZKK_g03vxS0OhxYEbi-24" value="&lt;font style=&quot;font-size: 16px;&quot; face=&quot;Times New Roman&quot;&gt;Клиентское приложение&lt;/font&gt;" style="text;html=1;whiteSpace=wrap;strokeColor=none;fillColor=none;align=center;verticalAlign=middle;rounded=0;" parent="1" vertex="1">
          <mxGeometry x="541.25" y="260" width="60" height="30" as="geometry" />
        </mxCell>
        <mxCell id="1DZKK_g03vxS0OhxYEbi-25" value="" style="endArrow=classic;html=1;rounded=0;entryX=0.651;entryY=-0.015;entryDx=0;entryDy=0;entryPerimeter=0;" parent="1" edge="1">
          <mxGeometry width="50" height="50" relative="1" as="geometry">
            <mxPoint x="253.57" y="-110" as="sourcePoint" />
            <mxPoint x="253.67999999999995" y="-49.99999999999994" as="targetPoint" />
          </mxGeometry>
        </mxCell>
        <mxCell id="1DZKK_g03vxS0OhxYEbi-29" value="" style="endArrow=classic;html=1;rounded=0;entryX=0.651;entryY=-0.015;entryDx=0;entryDy=0;entryPerimeter=0;" parent="1" edge="1">
          <mxGeometry width="50" height="50" relative="1" as="geometry">
            <mxPoint x="500" y="-110" as="sourcePoint" />
            <mxPoint x="500.10999999999996" y="-49.99999999999994" as="targetPoint" />
          </mxGeometry>
        </mxCell>
        <mxCell id="1DZKK_g03vxS0OhxYEbi-31" style="edgeStyle=orthogonalEdgeStyle;rounded=0;orthogonalLoop=1;jettySize=auto;html=1;exitX=0.5;exitY=1;exitDx=0;exitDy=0;" parent="1" source="1DZKK_g03vxS0OhxYEbi-22" target="1DZKK_g03vxS0OhxYEbi-22" edge="1">
          <mxGeometry relative="1" as="geometry" />
        </mxCell>
        <mxCell id="1DZKK_g03vxS0OhxYEbi-32" value="" style="endArrow=classic;html=1;rounded=0;" parent="1" edge="1">
          <mxGeometry width="50" height="50" relative="1" as="geometry">
            <mxPoint x="520" y="90" as="sourcePoint" />
            <mxPoint x="600" y="90" as="targetPoint" />
          </mxGeometry>
        </mxCell>
        <mxCell id="1DZKK_g03vxS0OhxYEbi-33" value="&lt;font face=&quot;Times New Roman&quot; style=&quot;font-size: 16px;&quot;&gt;Доставленные и сохраненные сообщения&lt;/font&gt;" style="text;html=1;whiteSpace=wrap;strokeColor=none;fillColor=none;align=center;verticalAlign=middle;rounded=0;" parent="1" vertex="1">
          <mxGeometry x="585" y="80" width="170" height="30" as="geometry" />
        </mxCell>
        <mxCell id="1uvmOw3570o56GvqnE3Y-1" value="&lt;font style=&quot;font-size: 20px;&quot; face=&quot;Times New Roman&quot;&gt;Проверка доступности сервера&lt;/font&gt;" style="whiteSpace=wrap;html=1;aspect=fixed;fillColor=default;gradientColor=none;opacity=60;" parent="1" vertex="1">
          <mxGeometry x="230" y="965" width="160" height="160" as="geometry" />
        </mxCell>
        <mxCell id="1uvmOw3570o56GvqnE3Y-2" value="" style="endArrow=classic;html=1;rounded=0;" parent="1" edge="1">
          <mxGeometry width="50" height="50" relative="1" as="geometry">
            <mxPoint x="170" y="1044.5499999999997" as="sourcePoint" />
            <mxPoint x="230" y="1044.5499999999997" as="targetPoint" />
          </mxGeometry>
        </mxCell>
        <mxCell id="1uvmOw3570o56GvqnE3Y-3" value="&lt;font style=&quot;font-size: 16px;&quot; face=&quot;Times New Roman&quot;&gt;Запрос на подключение&lt;/font&gt;" style="text;html=1;whiteSpace=wrap;strokeColor=none;fillColor=none;align=center;verticalAlign=middle;rounded=0;" parent="1" vertex="1">
          <mxGeometry x="70" y="1020" width="100" height="30" as="geometry" />
        </mxCell>
        <mxCell id="1uvmOw3570o56GvqnE3Y-4" value="" style="endArrow=classic;html=1;rounded=0;exitX=1;exitY=0.469;exitDx=0;exitDy=0;exitPerimeter=0;" parent="1" source="1uvmOw3570o56GvqnE3Y-1" edge="1">
          <mxGeometry width="50" height="50" relative="1" as="geometry">
            <mxPoint x="390" y="1045.1200000000001" as="sourcePoint" />
            <mxPoint x="510" y="1040" as="targetPoint" />
          </mxGeometry>
        </mxCell>
        <mxCell id="1uvmOw3570o56GvqnE3Y-21" value="&lt;div&gt;&lt;font style=&quot;font-size: 20px;&quot; face=&quot;Times New Roman&quot;&gt;Управление подключением клиента&lt;/font&gt;&lt;/div&gt;" style="whiteSpace=wrap;html=1;aspect=fixed;fillColor=default;gradientColor=none;opacity=60;" parent="1" vertex="1">
          <mxGeometry x="207.5" y="500" width="180" height="180" as="geometry" />
        </mxCell>
        <mxCell id="1uvmOw3570o56GvqnE3Y-23" value="&lt;font style=&quot;font-size: 20px;&quot; face=&quot;Times New Roman&quot;&gt;Организация безопасного обмена информацией&lt;/font&gt;" style="whiteSpace=wrap;html=1;aspect=fixed;fillColor=default;gradientColor=none;opacity=60;" parent="1" vertex="1">
          <mxGeometry x="500" y="500" width="180" height="180" as="geometry" />
        </mxCell>
        <mxCell id="1uvmOw3570o56GvqnE3Y-26" value="&lt;font style=&quot;font-size: 20px;&quot; face=&quot;Times New Roman&quot;&gt;Организация доставки и хранения отправленных сообщений&lt;/font&gt;" style="whiteSpace=wrap;html=1;aspect=fixed;fillColor=default;gradientColor=none;opacity=60;" parent="1" vertex="1">
          <mxGeometry x="1138.5" y="500" width="180" height="180" as="geometry" />
        </mxCell>
        <mxCell id="1uvmOw3570o56GvqnE3Y-29" value="" style="endArrow=classic;html=1;rounded=0;" parent="1" edge="1">
          <mxGeometry width="50" height="50" relative="1" as="geometry">
            <mxPoint x="147.5" y="594" as="sourcePoint" />
            <mxPoint x="207.5" y="594.47" as="targetPoint" />
          </mxGeometry>
        </mxCell>
        <mxCell id="1uvmOw3570o56GvqnE3Y-38" value="&lt;font style=&quot;font-size: 16px;&quot; face=&quot;Times New Roman&quot;&gt;Серверное приложение&lt;/font&gt;" style="text;html=1;whiteSpace=wrap;strokeColor=none;fillColor=none;align=center;verticalAlign=middle;rounded=0;" parent="1" vertex="1">
          <mxGeometry x="837.5" y="730" width="60" height="30" as="geometry" />
        </mxCell>
        <mxCell id="1uvmOw3570o56GvqnE3Y-40" value="&lt;font style=&quot;font-size: 16px;&quot; face=&quot;Times New Roman&quot;&gt;Клиентское приложение&lt;/font&gt;" style="text;html=1;whiteSpace=wrap;strokeColor=none;fillColor=none;align=center;verticalAlign=middle;rounded=0;" parent="1" vertex="1">
          <mxGeometry x="937.5" y="730" width="60" height="30" as="geometry" />
        </mxCell>
        <mxCell id="1uvmOw3570o56GvqnE3Y-50" value="&lt;font style=&quot;font-size: 16px;&quot; face=&quot;Times New Roman&quot;&gt;Криптобиблиотеки&lt;/font&gt;" style="text;html=1;whiteSpace=wrap;strokeColor=none;fillColor=none;align=center;verticalAlign=middle;rounded=0;" parent="1" vertex="1">
          <mxGeometry x="702.5" y="735" width="95" height="20" as="geometry" />
        </mxCell>
        <mxCell id="1uvmOw3570o56GvqnE3Y-51" value="" style="endArrow=classic;html=1;rounded=0;exitX=1;exitY=0.75;exitDx=0;exitDy=0;" parent="1" edge="1">
          <mxGeometry width="50" height="50" relative="1" as="geometry">
            <mxPoint x="388.75" y="589.71" as="sourcePoint" />
            <mxPoint x="498.75" y="589.71" as="targetPoint" />
          </mxGeometry>
        </mxCell>
        <mxCell id="1uvmOw3570o56GvqnE3Y-52" value="&lt;font style=&quot;font-size: 16px;&quot; face=&quot;Times New Roman&quot;&gt;Подключенный клиент&lt;/font&gt;" style="text;html=1;whiteSpace=wrap;strokeColor=none;fillColor=none;align=center;verticalAlign=middle;rounded=0;" parent="1" vertex="1">
          <mxGeometry x="413.75" y="550" width="60" height="30" as="geometry" />
        </mxCell>
        <mxCell id="1uvmOw3570o56GvqnE3Y-56" value="" style="endArrow=classic;html=1;rounded=0;entryX=0.001;entryY=0.716;entryDx=0;entryDy=0;entryPerimeter=0;" parent="1" target="1uvmOw3570o56GvqnE3Y-26" edge="1">
          <mxGeometry width="50" height="50" relative="1" as="geometry">
            <mxPoint x="100" y="680" as="sourcePoint" />
            <mxPoint x="1129.9599999999996" y="640.5799999999999" as="targetPoint" />
            <Array as="points">
              <mxPoint x="100" y="790" />
              <mxPoint x="1040" y="790" />
              <mxPoint x="1040" y="630" />
            </Array>
          </mxGeometry>
        </mxCell>
        <mxCell id="1uvmOw3570o56GvqnE3Y-57" value="&lt;font face=&quot;Times New Roman&quot; style=&quot;font-size: 16px;&quot;&gt;Сообщения клиента&lt;/font&gt;" style="text;html=1;whiteSpace=wrap;strokeColor=none;fillColor=none;align=center;verticalAlign=middle;rounded=0;" parent="1" vertex="1">
          <mxGeometry x="975" y="590" width="160" height="30" as="geometry" />
        </mxCell>
        <mxCell id="1uvmOw3570o56GvqnE3Y-65" value="&lt;font face=&quot;Times New Roman&quot; style=&quot;font-size: 16px;&quot;&gt;Доставленные&amp;nbsp; и сохраненные сообщения&lt;/font&gt;" style="text;html=1;whiteSpace=wrap;strokeColor=none;fillColor=none;align=center;verticalAlign=middle;rounded=0;" parent="1" vertex="1">
          <mxGeometry x="1357.5" y="575" width="180" height="30" as="geometry" />
        </mxCell>
        <mxCell id="1uvmOw3570o56GvqnE3Y-87" value="&lt;font style=&quot;font-size: 16px;&quot; face=&quot;Times New Roman&quot;&gt;Ответ от сервера&lt;/font&gt;" style="text;html=1;whiteSpace=wrap;strokeColor=none;fillColor=none;align=center;verticalAlign=middle;rounded=0;" parent="1" vertex="1">
          <mxGeometry x="386.25" y="1005" width="126.25" height="30" as="geometry" />
        </mxCell>
        <mxCell id="1uvmOw3570o56GvqnE3Y-96" value="&lt;font style=&quot;font-size: 20px;&quot; face=&quot;Times New Roman&quot;&gt;Установление TCP-соединения&lt;/font&gt;" style="whiteSpace=wrap;html=1;aspect=fixed;fillColor=default;gradientColor=none;opacity=60;" parent="1" vertex="1">
          <mxGeometry x="510" y="965" width="160" height="160" as="geometry" />
        </mxCell>
        <mxCell id="1uvmOw3570o56GvqnE3Y-105" value="&lt;font style=&quot;font-size: 20px;&quot; face=&quot;Times New Roman&quot;&gt;Иницилизация TLS&lt;/font&gt;" style="whiteSpace=wrap;html=1;aspect=fixed;fillColor=default;gradientColor=none;opacity=60;" parent="1" vertex="1">
          <mxGeometry x="220" y="1380" width="160" height="160" as="geometry" />
        </mxCell>
        <mxCell id="1uvmOw3570o56GvqnE3Y-106" value="" style="endArrow=classic;html=1;rounded=0;" parent="1" edge="1">
          <mxGeometry width="50" height="50" relative="1" as="geometry">
            <mxPoint x="160" y="1459.4099999999999" as="sourcePoint" />
            <mxPoint x="220" y="1459.4099999999999" as="targetPoint" />
          </mxGeometry>
        </mxCell>
        <mxCell id="1uvmOw3570o56GvqnE3Y-115" value="&lt;font style=&quot;font-size: 20px;&quot; face=&quot;Times New Roman&quot;&gt;Обмен ключами TLS&lt;/font&gt;" style="whiteSpace=wrap;html=1;aspect=fixed;fillColor=default;gradientColor=none;opacity=60;" parent="1" vertex="1">
          <mxGeometry x="520" y="1380" width="160" height="160" as="geometry" />
        </mxCell>
        <mxCell id="1uvmOw3570o56GvqnE3Y-116" value="" style="endArrow=classic;html=1;rounded=0;entryX=-0.004;entryY=0.289;entryDx=0;entryDy=0;entryPerimeter=0;" parent="1" edge="1">
          <mxGeometry width="50" height="50" relative="1" as="geometry">
            <mxPoint x="380" y="1459.41" as="sourcePoint" />
            <mxPoint x="520" y="1460.41" as="targetPoint" />
          </mxGeometry>
        </mxCell>
        <mxCell id="1uvmOw3570o56GvqnE3Y-124" value="" style="endArrow=classic;html=1;rounded=0;" parent="1" edge="1">
          <mxGeometry width="50" height="50" relative="1" as="geometry">
            <mxPoint x="680" y="1465" as="sourcePoint" />
            <mxPoint x="805" y="1465" as="targetPoint" />
          </mxGeometry>
        </mxCell>
        <mxCell id="1uvmOw3570o56GvqnE3Y-125" value="&lt;font style=&quot;font-size: 16px;&quot; face=&quot;Times New Roman&quot;&gt;Сеансовый ключ&lt;/font&gt;" style="text;whiteSpace=wrap;html=1;align=center;" parent="1" vertex="1">
          <mxGeometry x="673.75" y="1430" width="140" height="40" as="geometry" />
        </mxCell>
        <mxCell id="1uvmOw3570o56GvqnE3Y-130" value="&lt;font style=&quot;font-size: 16px;&quot; face=&quot;Times New Roman&quot;&gt;Защищенное соединение&lt;/font&gt;" style="text;whiteSpace=wrap;html=1;align=center;" parent="1" vertex="1">
          <mxGeometry x="1000" y="1430" width="140" height="40" as="geometry" />
        </mxCell>
        <mxCell id="1uvmOw3570o56GvqnE3Y-133" value="&lt;font style=&quot;font-size: 16px;&quot; face=&quot;Times New Roman&quot;&gt;Обмен приветствиями (TLS handshake)&lt;/font&gt;" style="text;html=1;whiteSpace=wrap;strokeColor=none;fillColor=none;align=center;verticalAlign=middle;rounded=0;" parent="1" vertex="1">
          <mxGeometry x="391.88" y="1415" width="115" height="30" as="geometry" />
        </mxCell>
        <mxCell id="1uvmOw3570o56GvqnE3Y-136" value="&lt;font style=&quot;font-size: 20px;&quot; face=&quot;Times New Roman&quot;&gt;Установление зашифрованного канала&lt;/font&gt;" style="whiteSpace=wrap;html=1;aspect=fixed;fillColor=default;gradientColor=none;opacity=60;" parent="1" vertex="1">
          <mxGeometry x="805" y="1380" width="160" height="160" as="geometry" />
        </mxCell>
        <mxCell id="1uvmOw3570o56GvqnE3Y-141" value="&lt;font style=&quot;font-size: 20px;&quot; face=&quot;Times New Roman&quot;&gt;Прием сообщений&lt;/font&gt;" style="whiteSpace=wrap;html=1;aspect=fixed;fillColor=default;gradientColor=none;opacity=60;" parent="1" vertex="1">
          <mxGeometry x="227.5" y="2160" width="160" height="160" as="geometry" />
        </mxCell>
        <mxCell id="1uvmOw3570o56GvqnE3Y-148" value="&lt;font style=&quot;font-size: 20px;&quot; face=&quot;Times New Roman&quot;&gt;Сохранение сообщений в истории чата&lt;/font&gt;" style="whiteSpace=wrap;html=1;aspect=fixed;fillColor=default;gradientColor=none;opacity=60;" parent="1" vertex="1">
          <mxGeometry x="536.25" y="2160" width="160" height="160" as="geometry" />
        </mxCell>
        <mxCell id="1uvmOw3570o56GvqnE3Y-149" value="" style="endArrow=classic;html=1;rounded=0;" parent="1" edge="1">
          <mxGeometry width="50" height="50" relative="1" as="geometry">
            <mxPoint x="387.5" y="2244.91" as="sourcePoint" />
            <mxPoint x="534" y="2245" as="targetPoint" />
          </mxGeometry>
        </mxCell>
        <mxCell id="1uvmOw3570o56GvqnE3Y-154" value="&lt;font style=&quot;font-size: 16px;&quot; face=&quot;Times New Roman&quot;&gt;Обработанные сообщения сервером&lt;/font&gt;" style="text;html=1;whiteSpace=wrap;strokeColor=none;fillColor=none;align=center;verticalAlign=middle;rounded=0;" parent="1" vertex="1">
          <mxGeometry x="383.75" y="2210" width="157.5" height="30" as="geometry" />
        </mxCell>
        <mxCell id="1uvmOw3570o56GvqnE3Y-158" value="" style="endArrow=classic;html=1;rounded=0;" parent="1" edge="1">
          <mxGeometry width="50" height="50" relative="1" as="geometry">
            <mxPoint x="967.5" y="2219.41" as="sourcePoint" />
            <mxPoint x="1067.5" y="2220" as="targetPoint" />
          </mxGeometry>
        </mxCell>
        <mxCell id="q0qNbGDis0NpPg7MLopi-2" value="" style="endArrow=classic;html=1;rounded=0;entryX=0.651;entryY=-0.015;entryDx=0;entryDy=0;entryPerimeter=0;" parent="1" edge="1">
          <mxGeometry width="50" height="50" relative="1" as="geometry">
            <mxPoint x="430" y="-110" as="sourcePoint" />
            <mxPoint x="430.10999999999996" y="-49.99999999999994" as="targetPoint" />
          </mxGeometry>
        </mxCell>
        <mxCell id="q0qNbGDis0NpPg7MLopi-4" value="" style="endArrow=classic;html=1;rounded=0;" parent="1" edge="1">
          <mxGeometry width="50" height="50" relative="1" as="geometry">
            <mxPoint x="310" y="290" as="sourcePoint" />
            <mxPoint x="310" y="240" as="targetPoint" />
          </mxGeometry>
        </mxCell>
        <mxCell id="q0qNbGDis0NpPg7MLopi-5" value="&lt;font style=&quot;font-size: 16px;&quot; face=&quot;Times New Roman&quot;&gt;Криптобиблиотеки&lt;/font&gt;" style="text;html=1;whiteSpace=wrap;strokeColor=none;fillColor=none;align=center;verticalAlign=middle;rounded=0;" parent="1" vertex="1">
          <mxGeometry x="272.5" y="290" width="70" height="30" as="geometry" />
        </mxCell>
        <mxCell id="q0qNbGDis0NpPg7MLopi-9" value="&lt;font style=&quot;font-size: 16px;&quot; face=&quot;Times New Roman&quot;&gt;Запрос на подключение клиента&lt;/font&gt;" style="text;html=1;whiteSpace=wrap;strokeColor=none;fillColor=none;align=center;verticalAlign=middle;rounded=0;" parent="1" vertex="1">
          <mxGeometry x="50" y="575" width="100" height="30" as="geometry" />
        </mxCell>
        <mxCell id="q0qNbGDis0NpPg7MLopi-12" value="" style="endArrow=classic;html=1;rounded=0;entryX=0.651;entryY=-0.015;entryDx=0;entryDy=0;entryPerimeter=0;" parent="1" edge="1">
          <mxGeometry width="50" height="50" relative="1" as="geometry">
            <mxPoint x="335" y="-110" as="sourcePoint" />
            <mxPoint x="335.10999999999996" y="-49.99999999999994" as="targetPoint" />
          </mxGeometry>
        </mxCell>
        <mxCell id="q0qNbGDis0NpPg7MLopi-13" value="&lt;font style=&quot;font-size: 16px;&quot; face=&quot;Times New Roman&quot;&gt;Протоколы обмена информацией&lt;font&gt;&lt;br&gt;&lt;/font&gt;&lt;/font&gt;" style="text;html=1;whiteSpace=wrap;strokeColor=none;fillColor=none;align=center;verticalAlign=middle;rounded=0;" parent="1" vertex="1">
          <mxGeometry x="310" y="-150" width="60" height="30" as="geometry" />
        </mxCell>
        <mxCell id="q0qNbGDis0NpPg7MLopi-23" value="&lt;div&gt;&lt;font style=&quot;font-size: 16px;&quot; face=&quot;Times New Roman&quot;&gt;База данных&lt;/font&gt;&lt;/div&gt;" style="text;html=1;whiteSpace=wrap;strokeColor=none;fillColor=none;align=center;verticalAlign=middle;rounded=0;" parent="1" vertex="1">
          <mxGeometry x="607.5" y="730" width="60" height="30" as="geometry" />
        </mxCell>
        <mxCell id="q0qNbGDis0NpPg7MLopi-45" value="" style="endArrow=none;html=1;rounded=0;jumpSize=0;movable=1;resizable=1;rotatable=1;deletable=1;editable=1;locked=0;connectable=1;" parent="1" edge="1">
          <mxGeometry width="50" height="50" relative="1" as="geometry">
            <mxPoint x="237.5" y="720" as="sourcePoint" />
            <mxPoint x="1287.5" y="720" as="targetPoint" />
          </mxGeometry>
        </mxCell>
        <mxCell id="q0qNbGDis0NpPg7MLopi-48" value="" style="endArrow=none;html=1;rounded=0;" parent="1" edge="1">
          <mxGeometry width="50" height="50" relative="1" as="geometry">
            <mxPoint x="237.5" y="460" as="sourcePoint" />
            <mxPoint x="1287.5" y="460" as="targetPoint" />
          </mxGeometry>
        </mxCell>
        <mxCell id="q0qNbGDis0NpPg7MLopi-65" value="" style="endArrow=none;html=1;rounded=0;" parent="1" edge="1">
          <mxGeometry width="50" height="50" relative="1" as="geometry">
            <mxPoint x="240" y="920" as="sourcePoint" />
            <mxPoint x="927.5" y="920" as="targetPoint" />
          </mxGeometry>
        </mxCell>
        <mxCell id="q0qNbGDis0NpPg7MLopi-67" value="" style="endArrow=classic;html=1;rounded=0;entryX=0.055;entryY=-0.011;entryDx=0;entryDy=0;entryPerimeter=0;" parent="1" edge="1">
          <mxGeometry width="50" height="50" relative="1" as="geometry">
            <mxPoint x="240.07" y="920" as="sourcePoint" />
            <mxPoint x="240" y="965" as="targetPoint" />
          </mxGeometry>
        </mxCell>
        <mxCell id="q0qNbGDis0NpPg7MLopi-68" value="" style="endArrow=classic;html=1;rounded=0;entryX=0.278;entryY=0;entryDx=0;entryDy=0;entryPerimeter=0;" parent="1" edge="1">
          <mxGeometry width="50" height="50" relative="1" as="geometry">
            <mxPoint x="285" y="920" as="sourcePoint" />
            <mxPoint x="284.9300000000001" y="965" as="targetPoint" />
          </mxGeometry>
        </mxCell>
        <mxCell id="q0qNbGDis0NpPg7MLopi-69" value="" style="endArrow=classic;html=1;rounded=0;entryX=0.278;entryY=0;entryDx=0;entryDy=0;entryPerimeter=0;" parent="1" edge="1">
          <mxGeometry width="50" height="50" relative="1" as="geometry">
            <mxPoint x="330" y="920" as="sourcePoint" />
            <mxPoint x="329.9300000000001" y="965" as="targetPoint" />
          </mxGeometry>
        </mxCell>
        <mxCell id="q0qNbGDis0NpPg7MLopi-70" value="" style="endArrow=classic;html=1;rounded=0;entryX=0.278;entryY=0;entryDx=0;entryDy=0;entryPerimeter=0;" parent="1" edge="1">
          <mxGeometry width="50" height="50" relative="1" as="geometry">
            <mxPoint x="375" y="920" as="sourcePoint" />
            <mxPoint x="374.9300000000001" y="965" as="targetPoint" />
          </mxGeometry>
        </mxCell>
        <mxCell id="q0qNbGDis0NpPg7MLopi-71" value="" style="endArrow=classic;html=1;rounded=0;entryX=0.055;entryY=-0.011;entryDx=0;entryDy=0;entryPerimeter=0;" parent="1" edge="1">
          <mxGeometry width="50" height="50" relative="1" as="geometry">
            <mxPoint x="529.89" y="920" as="sourcePoint" />
            <mxPoint x="529.8899999999999" y="965" as="targetPoint" />
          </mxGeometry>
        </mxCell>
        <mxCell id="q0qNbGDis0NpPg7MLopi-72" value="" style="endArrow=classic;html=1;rounded=0;entryX=0.278;entryY=0;entryDx=0;entryDy=0;entryPerimeter=0;" parent="1" edge="1">
          <mxGeometry width="50" height="50" relative="1" as="geometry">
            <mxPoint x="569.89" y="920" as="sourcePoint" />
            <mxPoint x="569.8900000000001" y="965" as="targetPoint" />
          </mxGeometry>
        </mxCell>
        <mxCell id="q0qNbGDis0NpPg7MLopi-73" value="" style="endArrow=classic;html=1;rounded=0;entryX=0.278;entryY=0;entryDx=0;entryDy=0;entryPerimeter=0;" parent="1" edge="1">
          <mxGeometry width="50" height="50" relative="1" as="geometry">
            <mxPoint x="614.89" y="920" as="sourcePoint" />
            <mxPoint x="614.8900000000001" y="965" as="targetPoint" />
          </mxGeometry>
        </mxCell>
        <mxCell id="q0qNbGDis0NpPg7MLopi-74" value="" style="endArrow=classic;html=1;rounded=0;entryX=0.278;entryY=0;entryDx=0;entryDy=0;entryPerimeter=0;" parent="1" edge="1">
          <mxGeometry width="50" height="50" relative="1" as="geometry">
            <mxPoint x="659.89" y="920" as="sourcePoint" />
            <mxPoint x="659.8900000000001" y="965" as="targetPoint" />
          </mxGeometry>
        </mxCell>
        <mxCell id="q0qNbGDis0NpPg7MLopi-79" value="&lt;font style=&quot;font-size: 16px;&quot; face=&quot;Times New Roman&quot;&gt;Политика безопасности и шифрования&lt;br&gt;&lt;/font&gt;" style="text;html=1;whiteSpace=wrap;strokeColor=none;fillColor=none;align=center;verticalAlign=middle;rounded=0;" parent="1" vertex="1">
          <mxGeometry x="396.25" y="870" width="120" height="30" as="geometry" />
        </mxCell>
        <mxCell id="q0qNbGDis0NpPg7MLopi-80" value="&lt;div align=&quot;center&quot;&gt;&lt;font style=&quot;font-size: 16px;&quot; face=&quot;Times New Roman&quot;&gt;Законы&lt;/font&gt;&lt;/div&gt;" style="text;whiteSpace=wrap;html=1;align=center;" parent="1" vertex="1">
          <mxGeometry x="743.75" y="870" width="60" height="40" as="geometry" />
        </mxCell>
        <mxCell id="q0qNbGDis0NpPg7MLopi-81" value="&lt;div align=&quot;center&quot;&gt;&lt;font style=&quot;font-size: 16px;&quot; face=&quot;Times New Roman&quot;&gt;Метод шифрования&lt;/font&gt;&lt;/div&gt;" style="text;html=1;whiteSpace=wrap;strokeColor=none;fillColor=none;align=center;verticalAlign=middle;rounded=0;" parent="1" vertex="1">
          <mxGeometry x="653.75" y="870" width="60" height="30" as="geometry" />
        </mxCell>
        <mxCell id="q0qNbGDis0NpPg7MLopi-82" value="&lt;font style=&quot;font-size: 16px;&quot; face=&quot;Times New Roman&quot;&gt;Протоколы обмена информацией&lt;font&gt;&lt;br&gt;&lt;/font&gt;&lt;/font&gt;" style="text;html=1;whiteSpace=wrap;strokeColor=none;fillColor=none;align=center;verticalAlign=middle;rounded=0;" parent="1" vertex="1">
          <mxGeometry x="546.25" y="870" width="60" height="30" as="geometry" />
        </mxCell>
        <mxCell id="q0qNbGDis0NpPg7MLopi-84" value="" style="endArrow=none;html=1;rounded=0;" parent="1" edge="1">
          <mxGeometry width="50" height="50" relative="1" as="geometry">
            <mxPoint x="240" y="1170" as="sourcePoint" />
            <mxPoint x="926.88" y="1170" as="targetPoint" />
          </mxGeometry>
        </mxCell>
        <mxCell id="q0qNbGDis0NpPg7MLopi-90" value="" style="endArrow=classic;html=1;rounded=0;entryX=0.198;entryY=1.01;entryDx=0;entryDy=0;entryPerimeter=0;" parent="1" edge="1">
          <mxGeometry width="50" height="50" relative="1" as="geometry">
            <mxPoint x="240.11" y="1170" as="sourcePoint" />
            <mxPoint x="240.0000000000001" y="1125" as="targetPoint" />
          </mxGeometry>
        </mxCell>
        <mxCell id="q0qNbGDis0NpPg7MLopi-91" value="" style="endArrow=classic;html=1;rounded=0;" parent="1" edge="1">
          <mxGeometry width="50" height="50" relative="1" as="geometry">
            <mxPoint x="285" y="1170" as="sourcePoint" />
            <mxPoint x="284.01" y="1125" as="targetPoint" />
          </mxGeometry>
        </mxCell>
        <mxCell id="q0qNbGDis0NpPg7MLopi-92" value="" style="endArrow=classic;html=1;rounded=0;" parent="1" edge="1">
          <mxGeometry width="50" height="50" relative="1" as="geometry">
            <mxPoint x="330" y="1170" as="sourcePoint" />
            <mxPoint x="329.75" y="1125" as="targetPoint" />
          </mxGeometry>
        </mxCell>
        <mxCell id="q0qNbGDis0NpPg7MLopi-93" value="" style="endArrow=classic;html=1;rounded=0;" parent="1" edge="1">
          <mxGeometry width="50" height="50" relative="1" as="geometry">
            <mxPoint x="375" y="1170" as="sourcePoint" />
            <mxPoint x="374.75" y="1125" as="targetPoint" />
          </mxGeometry>
        </mxCell>
        <mxCell id="q0qNbGDis0NpPg7MLopi-94" value="" style="endArrow=classic;html=1;rounded=0;entryX=0.198;entryY=1.01;entryDx=0;entryDy=0;entryPerimeter=0;" parent="1" edge="1">
          <mxGeometry width="50" height="50" relative="1" as="geometry">
            <mxPoint x="530.05" y="1169" as="sourcePoint" />
            <mxPoint x="529.9399999999999" y="1124" as="targetPoint" />
          </mxGeometry>
        </mxCell>
        <mxCell id="q0qNbGDis0NpPg7MLopi-95" value="" style="endArrow=classic;html=1;rounded=0;" parent="1" edge="1">
          <mxGeometry width="50" height="50" relative="1" as="geometry">
            <mxPoint x="569.05" y="1169" as="sourcePoint" />
            <mxPoint x="569.0599999999998" y="1124" as="targetPoint" />
          </mxGeometry>
        </mxCell>
        <mxCell id="q0qNbGDis0NpPg7MLopi-96" value="" style="endArrow=classic;html=1;rounded=0;" parent="1" edge="1">
          <mxGeometry width="50" height="50" relative="1" as="geometry">
            <mxPoint x="615.05" y="1169" as="sourcePoint" />
            <mxPoint x="614.7999999999998" y="1124" as="targetPoint" />
          </mxGeometry>
        </mxCell>
        <mxCell id="q0qNbGDis0NpPg7MLopi-97" value="" style="endArrow=classic;html=1;rounded=0;" parent="1" edge="1">
          <mxGeometry width="50" height="50" relative="1" as="geometry">
            <mxPoint x="660.05" y="1169" as="sourcePoint" />
            <mxPoint x="659.7999999999998" y="1124" as="targetPoint" />
          </mxGeometry>
        </mxCell>
        <mxCell id="q0qNbGDis0NpPg7MLopi-103" value="&lt;font style=&quot;font-size: 16px;&quot; face=&quot;Times New Roman&quot;&gt;Серверное приложение&lt;/font&gt;" style="text;html=1;whiteSpace=wrap;strokeColor=none;fillColor=none;align=center;verticalAlign=middle;rounded=0;" parent="1" vertex="1">
          <mxGeometry x="637.5" y="1180" width="60" height="30" as="geometry" />
        </mxCell>
        <mxCell id="q0qNbGDis0NpPg7MLopi-104" value="&lt;font style=&quot;font-size: 16px;&quot; face=&quot;Times New Roman&quot;&gt;Клиентское приложение&lt;/font&gt;" style="text;html=1;whiteSpace=wrap;strokeColor=none;fillColor=none;align=center;verticalAlign=middle;rounded=0;" parent="1" vertex="1">
          <mxGeometry x="737.5" y="1180" width="60" height="30" as="geometry" />
        </mxCell>
        <mxCell id="q0qNbGDis0NpPg7MLopi-105" value="&lt;font style=&quot;font-size: 16px;&quot; face=&quot;Times New Roman&quot;&gt;Криптобиблиотеки&lt;/font&gt;" style="text;html=1;whiteSpace=wrap;strokeColor=none;fillColor=none;align=center;verticalAlign=middle;rounded=0;" parent="1" vertex="1">
          <mxGeometry x="502.5" y="1185" width="95" height="20" as="geometry" />
        </mxCell>
        <mxCell id="q0qNbGDis0NpPg7MLopi-106" value="&lt;div&gt;&lt;font style=&quot;font-size: 16px;&quot; face=&quot;Times New Roman&quot;&gt;База данных&lt;/font&gt;&lt;/div&gt;" style="text;html=1;whiteSpace=wrap;strokeColor=none;fillColor=none;align=center;verticalAlign=middle;rounded=0;" parent="1" vertex="1">
          <mxGeometry x="407.5" y="1180" width="60" height="30" as="geometry" />
        </mxCell>
        <mxCell id="q0qNbGDis0NpPg7MLopi-107" value="&lt;font style=&quot;font-size: 16px;&quot; face=&quot;Times New Roman&quot;&gt;Политика безопасности и шифрования&lt;br&gt;&lt;/font&gt;" style="text;html=1;whiteSpace=wrap;strokeColor=none;fillColor=none;align=center;verticalAlign=middle;rounded=0;" parent="1" vertex="1">
          <mxGeometry x="603.75" y="410" width="120" height="30" as="geometry" />
        </mxCell>
        <mxCell id="q0qNbGDis0NpPg7MLopi-108" value="&lt;div align=&quot;center&quot;&gt;&lt;font style=&quot;font-size: 16px;&quot; face=&quot;Times New Roman&quot;&gt;Законы&lt;/font&gt;&lt;/div&gt;" style="text;whiteSpace=wrap;html=1;align=center;" parent="1" vertex="1">
          <mxGeometry x="951.25" y="410" width="60" height="40" as="geometry" />
        </mxCell>
        <mxCell id="q0qNbGDis0NpPg7MLopi-109" value="&lt;div align=&quot;center&quot;&gt;&lt;font style=&quot;font-size: 16px;&quot; face=&quot;Times New Roman&quot;&gt;Метод шифрования&lt;/font&gt;&lt;/div&gt;" style="text;html=1;whiteSpace=wrap;strokeColor=none;fillColor=none;align=center;verticalAlign=middle;rounded=0;" parent="1" vertex="1">
          <mxGeometry x="861.25" y="410" width="60" height="30" as="geometry" />
        </mxCell>
        <mxCell id="q0qNbGDis0NpPg7MLopi-110" value="&lt;font style=&quot;font-size: 16px;&quot; face=&quot;Times New Roman&quot;&gt;Протоколы обмена информацией&lt;font&gt;&lt;br&gt;&lt;/font&gt;&lt;/font&gt;" style="text;html=1;whiteSpace=wrap;strokeColor=none;fillColor=none;align=center;verticalAlign=middle;rounded=0;" parent="1" vertex="1">
          <mxGeometry x="753.75" y="410" width="60" height="30" as="geometry" />
        </mxCell>
        <mxCell id="q0qNbGDis0NpPg7MLopi-112" value="" style="endArrow=classic;html=1;rounded=0;exitX=1;exitY=0.465;exitDx=0;exitDy=0;exitPerimeter=0;" parent="1" source="rh09vBjYHS_wtcfZ574y-102" edge="1">
          <mxGeometry width="50" height="50" relative="1" as="geometry">
            <mxPoint x="950" y="1044.25" as="sourcePoint" />
            <mxPoint x="1000" y="1039" as="targetPoint" />
          </mxGeometry>
        </mxCell>
        <mxCell id="q0qNbGDis0NpPg7MLopi-113" value="&lt;font face=&quot;Times New Roman&quot; style=&quot;font-size: 16px;&quot;&gt;Подключенный клиент&lt;/font&gt;" style="text;whiteSpace=wrap;html=1;align=center;" parent="1" vertex="1">
          <mxGeometry x="980" y="1010" width="140" height="40" as="geometry" />
        </mxCell>
        <mxCell id="rh09vBjYHS_wtcfZ574y-2" value="" style="endArrow=none;html=1;rounded=0;" parent="1" edge="1">
          <mxGeometry width="50" height="50" relative="1" as="geometry">
            <mxPoint x="235" y="1580" as="sourcePoint" />
            <mxPoint x="955" y="1580" as="targetPoint" />
          </mxGeometry>
        </mxCell>
        <mxCell id="rh09vBjYHS_wtcfZ574y-8" value="" style="endArrow=classic;html=1;rounded=0;" parent="1" edge="1">
          <mxGeometry width="50" height="50" relative="1" as="geometry">
            <mxPoint x="237.14" y="720" as="sourcePoint" />
            <mxPoint x="237.14" y="680" as="targetPoint" />
          </mxGeometry>
        </mxCell>
        <mxCell id="rh09vBjYHS_wtcfZ574y-9" value="" style="endArrow=classic;html=1;rounded=0;" parent="1" edge="1">
          <mxGeometry width="50" height="50" relative="1" as="geometry">
            <mxPoint x="277.14" y="720" as="sourcePoint" />
            <mxPoint x="277.1399999999999" y="680" as="targetPoint" />
          </mxGeometry>
        </mxCell>
        <mxCell id="rh09vBjYHS_wtcfZ574y-10" value="" style="endArrow=classic;html=1;rounded=0;" parent="1" edge="1">
          <mxGeometry width="50" height="50" relative="1" as="geometry">
            <mxPoint x="317.14" y="720" as="sourcePoint" />
            <mxPoint x="317.1399999999999" y="680" as="targetPoint" />
          </mxGeometry>
        </mxCell>
        <mxCell id="rh09vBjYHS_wtcfZ574y-11" value="" style="endArrow=classic;html=1;rounded=0;" parent="1" edge="1">
          <mxGeometry width="50" height="50" relative="1" as="geometry">
            <mxPoint x="357.14" y="720" as="sourcePoint" />
            <mxPoint x="357.1399999999999" y="680" as="targetPoint" />
          </mxGeometry>
        </mxCell>
        <mxCell id="rh09vBjYHS_wtcfZ574y-15" value="" style="endArrow=classic;html=1;rounded=0;" parent="1" edge="1">
          <mxGeometry width="50" height="50" relative="1" as="geometry">
            <mxPoint x="529.6400000000001" y="720" as="sourcePoint" />
            <mxPoint x="529.6400000000001" y="680" as="targetPoint" />
          </mxGeometry>
        </mxCell>
        <mxCell id="rh09vBjYHS_wtcfZ574y-16" value="" style="endArrow=classic;html=1;rounded=0;" parent="1" edge="1">
          <mxGeometry width="50" height="50" relative="1" as="geometry">
            <mxPoint x="569.6400000000001" y="720" as="sourcePoint" />
            <mxPoint x="569.64" y="680" as="targetPoint" />
          </mxGeometry>
        </mxCell>
        <mxCell id="rh09vBjYHS_wtcfZ574y-17" value="" style="endArrow=classic;html=1;rounded=0;" parent="1" edge="1">
          <mxGeometry width="50" height="50" relative="1" as="geometry">
            <mxPoint x="609.6400000000001" y="720" as="sourcePoint" />
            <mxPoint x="609.64" y="680" as="targetPoint" />
          </mxGeometry>
        </mxCell>
        <mxCell id="rh09vBjYHS_wtcfZ574y-18" value="" style="endArrow=classic;html=1;rounded=0;" parent="1" edge="1">
          <mxGeometry width="50" height="50" relative="1" as="geometry">
            <mxPoint x="649.6400000000001" y="720" as="sourcePoint" />
            <mxPoint x="649.64" y="680" as="targetPoint" />
          </mxGeometry>
        </mxCell>
        <mxCell id="rh09vBjYHS_wtcfZ574y-19" value="" style="endArrow=classic;html=1;rounded=0;" parent="1" edge="1">
          <mxGeometry width="50" height="50" relative="1" as="geometry">
            <mxPoint x="807.21" y="720" as="sourcePoint" />
            <mxPoint x="807.21" y="680" as="targetPoint" />
          </mxGeometry>
        </mxCell>
        <mxCell id="rh09vBjYHS_wtcfZ574y-20" value="" style="endArrow=classic;html=1;rounded=0;" parent="1" edge="1">
          <mxGeometry width="50" height="50" relative="1" as="geometry">
            <mxPoint x="847.2100000000002" y="720" as="sourcePoint" />
            <mxPoint x="847.2100000000002" y="680" as="targetPoint" />
          </mxGeometry>
        </mxCell>
        <mxCell id="rh09vBjYHS_wtcfZ574y-21" value="" style="endArrow=classic;html=1;rounded=0;" parent="1" edge="1">
          <mxGeometry width="50" height="50" relative="1" as="geometry">
            <mxPoint x="887.2100000000002" y="720" as="sourcePoint" />
            <mxPoint x="887.2100000000002" y="680" as="targetPoint" />
          </mxGeometry>
        </mxCell>
        <mxCell id="rh09vBjYHS_wtcfZ574y-22" value="" style="endArrow=classic;html=1;rounded=0;" parent="1" edge="1">
          <mxGeometry width="50" height="50" relative="1" as="geometry">
            <mxPoint x="927.2100000000002" y="720" as="sourcePoint" />
            <mxPoint x="927.2100000000002" y="680" as="targetPoint" />
          </mxGeometry>
        </mxCell>
        <mxCell id="rh09vBjYHS_wtcfZ574y-23" value="" style="endArrow=classic;html=1;rounded=0;" parent="1" edge="1">
          <mxGeometry width="50" height="50" relative="1" as="geometry">
            <mxPoint x="1168.16" y="720" as="sourcePoint" />
            <mxPoint x="1168.16" y="680" as="targetPoint" />
          </mxGeometry>
        </mxCell>
        <mxCell id="rh09vBjYHS_wtcfZ574y-24" value="" style="endArrow=classic;html=1;rounded=0;" parent="1" edge="1">
          <mxGeometry width="50" height="50" relative="1" as="geometry">
            <mxPoint x="1208.16" y="720" as="sourcePoint" />
            <mxPoint x="1208.16" y="680" as="targetPoint" />
          </mxGeometry>
        </mxCell>
        <mxCell id="rh09vBjYHS_wtcfZ574y-25" value="" style="endArrow=classic;html=1;rounded=0;" parent="1" edge="1">
          <mxGeometry width="50" height="50" relative="1" as="geometry">
            <mxPoint x="1248.16" y="720" as="sourcePoint" />
            <mxPoint x="1248.16" y="680" as="targetPoint" />
          </mxGeometry>
        </mxCell>
        <mxCell id="rh09vBjYHS_wtcfZ574y-26" value="" style="endArrow=classic;html=1;rounded=0;" parent="1" edge="1">
          <mxGeometry width="50" height="50" relative="1" as="geometry">
            <mxPoint x="1288.16" y="720" as="sourcePoint" />
            <mxPoint x="1288.16" y="680" as="targetPoint" />
          </mxGeometry>
        </mxCell>
        <mxCell id="rh09vBjYHS_wtcfZ574y-27" value="" style="endArrow=classic;html=1;rounded=0;entryX=0.055;entryY=-0.011;entryDx=0;entryDy=0;entryPerimeter=0;" parent="1" edge="1">
          <mxGeometry width="50" height="50" relative="1" as="geometry">
            <mxPoint x="237.54999999999998" y="460" as="sourcePoint" />
            <mxPoint x="237.29" y="500" as="targetPoint" />
          </mxGeometry>
        </mxCell>
        <mxCell id="rh09vBjYHS_wtcfZ574y-28" value="" style="endArrow=classic;html=1;rounded=0;entryX=0.278;entryY=0;entryDx=0;entryDy=0;entryPerimeter=0;" parent="1" edge="1">
          <mxGeometry width="50" height="50" relative="1" as="geometry">
            <mxPoint x="275.13" y="460" as="sourcePoint" />
            <mxPoint x="274.8700000000001" y="500" as="targetPoint" />
          </mxGeometry>
        </mxCell>
        <mxCell id="rh09vBjYHS_wtcfZ574y-29" value="" style="endArrow=classic;html=1;rounded=0;entryX=0.278;entryY=0;entryDx=0;entryDy=0;entryPerimeter=0;" parent="1" edge="1">
          <mxGeometry width="50" height="50" relative="1" as="geometry">
            <mxPoint x="317.5" y="460" as="sourcePoint" />
            <mxPoint x="317.2400000000001" y="500" as="targetPoint" />
          </mxGeometry>
        </mxCell>
        <mxCell id="rh09vBjYHS_wtcfZ574y-30" value="" style="endArrow=classic;html=1;rounded=0;entryX=0.278;entryY=0;entryDx=0;entryDy=0;entryPerimeter=0;" parent="1" edge="1">
          <mxGeometry width="50" height="50" relative="1" as="geometry">
            <mxPoint x="357.76" y="460" as="sourcePoint" />
            <mxPoint x="357.5000000000001" y="500" as="targetPoint" />
          </mxGeometry>
        </mxCell>
        <mxCell id="rh09vBjYHS_wtcfZ574y-31" value="" style="endArrow=classic;html=1;rounded=0;entryX=0.055;entryY=-0.011;entryDx=0;entryDy=0;entryPerimeter=0;" parent="1" edge="1">
          <mxGeometry width="50" height="50" relative="1" as="geometry">
            <mxPoint x="529.8" y="460" as="sourcePoint" />
            <mxPoint x="529.54" y="500" as="targetPoint" />
          </mxGeometry>
        </mxCell>
        <mxCell id="rh09vBjYHS_wtcfZ574y-32" value="" style="endArrow=classic;html=1;rounded=0;entryX=0.278;entryY=0;entryDx=0;entryDy=0;entryPerimeter=0;" parent="1" edge="1">
          <mxGeometry width="50" height="50" relative="1" as="geometry">
            <mxPoint x="567.38" y="460" as="sourcePoint" />
            <mxPoint x="567.1200000000001" y="500" as="targetPoint" />
          </mxGeometry>
        </mxCell>
        <mxCell id="rh09vBjYHS_wtcfZ574y-33" value="" style="endArrow=classic;html=1;rounded=0;entryX=0.278;entryY=0;entryDx=0;entryDy=0;entryPerimeter=0;" parent="1" edge="1">
          <mxGeometry width="50" height="50" relative="1" as="geometry">
            <mxPoint x="609.75" y="460" as="sourcePoint" />
            <mxPoint x="609.4900000000001" y="500" as="targetPoint" />
          </mxGeometry>
        </mxCell>
        <mxCell id="rh09vBjYHS_wtcfZ574y-34" value="" style="endArrow=classic;html=1;rounded=0;entryX=0.278;entryY=0;entryDx=0;entryDy=0;entryPerimeter=0;" parent="1" edge="1">
          <mxGeometry width="50" height="50" relative="1" as="geometry">
            <mxPoint x="650.01" y="460" as="sourcePoint" />
            <mxPoint x="649.7500000000001" y="500" as="targetPoint" />
          </mxGeometry>
        </mxCell>
        <mxCell id="rh09vBjYHS_wtcfZ574y-35" value="" style="endArrow=classic;html=1;rounded=0;entryX=0.055;entryY=-0.011;entryDx=0;entryDy=0;entryPerimeter=0;" parent="1" edge="1">
          <mxGeometry width="50" height="50" relative="1" as="geometry">
            <mxPoint x="812.37" y="460" as="sourcePoint" />
            <mxPoint x="812.11" y="500" as="targetPoint" />
          </mxGeometry>
        </mxCell>
        <mxCell id="rh09vBjYHS_wtcfZ574y-36" value="" style="endArrow=classic;html=1;rounded=0;entryX=0.278;entryY=0;entryDx=0;entryDy=0;entryPerimeter=0;" parent="1" edge="1">
          <mxGeometry width="50" height="50" relative="1" as="geometry">
            <mxPoint x="849.9500000000002" y="460" as="sourcePoint" />
            <mxPoint x="849.6900000000002" y="500" as="targetPoint" />
          </mxGeometry>
        </mxCell>
        <mxCell id="rh09vBjYHS_wtcfZ574y-37" value="" style="endArrow=classic;html=1;rounded=0;entryX=0.278;entryY=0;entryDx=0;entryDy=0;entryPerimeter=0;" parent="1" edge="1">
          <mxGeometry width="50" height="50" relative="1" as="geometry">
            <mxPoint x="892.32" y="460" as="sourcePoint" />
            <mxPoint x="892.0600000000003" y="500" as="targetPoint" />
          </mxGeometry>
        </mxCell>
        <mxCell id="rh09vBjYHS_wtcfZ574y-38" value="" style="endArrow=classic;html=1;rounded=0;entryX=0.278;entryY=0;entryDx=0;entryDy=0;entryPerimeter=0;" parent="1" edge="1">
          <mxGeometry width="50" height="50" relative="1" as="geometry">
            <mxPoint x="932.58" y="460" as="sourcePoint" />
            <mxPoint x="932.32" y="500" as="targetPoint" />
          </mxGeometry>
        </mxCell>
        <mxCell id="rh09vBjYHS_wtcfZ574y-39" value="" style="endArrow=classic;html=1;rounded=0;entryX=0.055;entryY=-0.011;entryDx=0;entryDy=0;entryPerimeter=0;" parent="1" edge="1">
          <mxGeometry width="50" height="50" relative="1" as="geometry">
            <mxPoint x="1168.31" y="460" as="sourcePoint" />
            <mxPoint x="1168.05" y="500" as="targetPoint" />
          </mxGeometry>
        </mxCell>
        <mxCell id="rh09vBjYHS_wtcfZ574y-40" value="" style="endArrow=classic;html=1;rounded=0;entryX=0.278;entryY=0;entryDx=0;entryDy=0;entryPerimeter=0;" parent="1" edge="1">
          <mxGeometry width="50" height="50" relative="1" as="geometry">
            <mxPoint x="1205.89" y="460" as="sourcePoint" />
            <mxPoint x="1205.63" y="500" as="targetPoint" />
          </mxGeometry>
        </mxCell>
        <mxCell id="rh09vBjYHS_wtcfZ574y-41" value="" style="endArrow=classic;html=1;rounded=0;entryX=0.278;entryY=0;entryDx=0;entryDy=0;entryPerimeter=0;" parent="1" edge="1">
          <mxGeometry width="50" height="50" relative="1" as="geometry">
            <mxPoint x="1248.26" y="460" as="sourcePoint" />
            <mxPoint x="1248.0000000000002" y="500" as="targetPoint" />
          </mxGeometry>
        </mxCell>
        <mxCell id="rh09vBjYHS_wtcfZ574y-42" value="" style="endArrow=classic;html=1;rounded=0;entryX=0.278;entryY=0;entryDx=0;entryDy=0;entryPerimeter=0;" parent="1" edge="1">
          <mxGeometry width="50" height="50" relative="1" as="geometry">
            <mxPoint x="1288.52" y="460" as="sourcePoint" />
            <mxPoint x="1288.26" y="500" as="targetPoint" />
          </mxGeometry>
        </mxCell>
        <mxCell id="rh09vBjYHS_wtcfZ574y-43" value="" style="endArrow=classic;html=1;rounded=0;entryX=0.198;entryY=1.01;entryDx=0;entryDy=0;entryPerimeter=0;" parent="1" edge="1">
          <mxGeometry width="50" height="50" relative="1" as="geometry">
            <mxPoint x="235" y="1580" as="sourcePoint" />
            <mxPoint x="234.76999999999998" y="1540" as="targetPoint" />
          </mxGeometry>
        </mxCell>
        <mxCell id="rh09vBjYHS_wtcfZ574y-44" value="" style="endArrow=classic;html=1;rounded=0;entryX=0.345;entryY=1.002;entryDx=0;entryDy=0;entryPerimeter=0;" parent="1" target="1uvmOw3570o56GvqnE3Y-105" edge="1">
          <mxGeometry width="50" height="50" relative="1" as="geometry">
            <mxPoint x="275" y="1580" as="sourcePoint" />
            <mxPoint x="273.8899999999999" y="1540" as="targetPoint" />
          </mxGeometry>
        </mxCell>
        <mxCell id="rh09vBjYHS_wtcfZ574y-45" value="" style="endArrow=classic;html=1;rounded=0;" parent="1" edge="1">
          <mxGeometry width="50" height="50" relative="1" as="geometry">
            <mxPoint x="320" y="1580" as="sourcePoint" />
            <mxPoint x="319.6299999999999" y="1540" as="targetPoint" />
          </mxGeometry>
        </mxCell>
        <mxCell id="rh09vBjYHS_wtcfZ574y-46" value="" style="endArrow=classic;html=1;rounded=0;" parent="1" edge="1">
          <mxGeometry width="50" height="50" relative="1" as="geometry">
            <mxPoint x="365" y="1580" as="sourcePoint" />
            <mxPoint x="364.6299999999999" y="1540" as="targetPoint" />
          </mxGeometry>
        </mxCell>
        <mxCell id="rh09vBjYHS_wtcfZ574y-48" value="" style="endArrow=classic;html=1;rounded=0;entryX=0.198;entryY=1.01;entryDx=0;entryDy=0;entryPerimeter=0;" parent="1" edge="1">
          <mxGeometry width="50" height="50" relative="1" as="geometry">
            <mxPoint x="534.94" y="1580" as="sourcePoint" />
            <mxPoint x="534.71" y="1540" as="targetPoint" />
          </mxGeometry>
        </mxCell>
        <mxCell id="rh09vBjYHS_wtcfZ574y-49" value="" style="endArrow=classic;html=1;rounded=0;entryX=0.345;entryY=1.002;entryDx=0;entryDy=0;entryPerimeter=0;" parent="1" edge="1">
          <mxGeometry width="50" height="50" relative="1" as="geometry">
            <mxPoint x="574.94" y="1580" as="sourcePoint" />
            <mxPoint x="574.94" y="1540" as="targetPoint" />
          </mxGeometry>
        </mxCell>
        <mxCell id="rh09vBjYHS_wtcfZ574y-50" value="" style="endArrow=classic;html=1;rounded=0;" parent="1" edge="1">
          <mxGeometry width="50" height="50" relative="1" as="geometry">
            <mxPoint x="619.94" y="1580" as="sourcePoint" />
            <mxPoint x="619.5699999999999" y="1540" as="targetPoint" />
          </mxGeometry>
        </mxCell>
        <mxCell id="rh09vBjYHS_wtcfZ574y-51" value="" style="endArrow=classic;html=1;rounded=0;" parent="1" edge="1">
          <mxGeometry width="50" height="50" relative="1" as="geometry">
            <mxPoint x="664.94" y="1580" as="sourcePoint" />
            <mxPoint x="664.5699999999999" y="1540" as="targetPoint" />
          </mxGeometry>
        </mxCell>
        <mxCell id="rh09vBjYHS_wtcfZ574y-52" value="" style="endArrow=classic;html=1;rounded=0;entryX=0.198;entryY=1.01;entryDx=0;entryDy=0;entryPerimeter=0;" parent="1" edge="1">
          <mxGeometry width="50" height="50" relative="1" as="geometry">
            <mxPoint x="825.23" y="1580" as="sourcePoint" />
            <mxPoint x="825" y="1540" as="targetPoint" />
          </mxGeometry>
        </mxCell>
        <mxCell id="rh09vBjYHS_wtcfZ574y-53" value="" style="endArrow=classic;html=1;rounded=0;entryX=0.345;entryY=1.002;entryDx=0;entryDy=0;entryPerimeter=0;" parent="1" edge="1">
          <mxGeometry width="50" height="50" relative="1" as="geometry">
            <mxPoint x="865.23" y="1580" as="sourcePoint" />
            <mxPoint x="865.23" y="1540" as="targetPoint" />
          </mxGeometry>
        </mxCell>
        <mxCell id="rh09vBjYHS_wtcfZ574y-54" value="" style="endArrow=classic;html=1;rounded=0;" parent="1" edge="1">
          <mxGeometry width="50" height="50" relative="1" as="geometry">
            <mxPoint x="910.23" y="1580" as="sourcePoint" />
            <mxPoint x="909.8599999999999" y="1540" as="targetPoint" />
          </mxGeometry>
        </mxCell>
        <mxCell id="rh09vBjYHS_wtcfZ574y-55" value="" style="endArrow=classic;html=1;rounded=0;" parent="1" edge="1">
          <mxGeometry width="50" height="50" relative="1" as="geometry">
            <mxPoint x="955.23" y="1580" as="sourcePoint" />
            <mxPoint x="954.8599999999999" y="1540" as="targetPoint" />
          </mxGeometry>
        </mxCell>
        <mxCell id="rh09vBjYHS_wtcfZ574y-56" value="" style="endArrow=classic;html=1;rounded=0;entryX=0.055;entryY=-0.011;entryDx=0;entryDy=0;entryPerimeter=0;" parent="1" edge="1">
          <mxGeometry width="50" height="50" relative="1" as="geometry">
            <mxPoint x="237" y="1330" as="sourcePoint" />
            <mxPoint x="237.26" y="1380" as="targetPoint" />
          </mxGeometry>
        </mxCell>
        <mxCell id="rh09vBjYHS_wtcfZ574y-57" value="" style="endArrow=classic;html=1;rounded=0;entryX=0.278;entryY=0;entryDx=0;entryDy=0;entryPerimeter=0;" parent="1" edge="1">
          <mxGeometry width="50" height="50" relative="1" as="geometry">
            <mxPoint x="277" y="1330" as="sourcePoint" />
            <mxPoint x="277.2600000000001" y="1380" as="targetPoint" />
          </mxGeometry>
        </mxCell>
        <mxCell id="rh09vBjYHS_wtcfZ574y-58" value="" style="endArrow=classic;html=1;rounded=0;entryX=0.278;entryY=0;entryDx=0;entryDy=0;entryPerimeter=0;" parent="1" edge="1">
          <mxGeometry width="50" height="50" relative="1" as="geometry">
            <mxPoint x="322" y="1330" as="sourcePoint" />
            <mxPoint x="322.2600000000001" y="1380" as="targetPoint" />
          </mxGeometry>
        </mxCell>
        <mxCell id="rh09vBjYHS_wtcfZ574y-59" value="" style="endArrow=classic;html=1;rounded=0;entryX=0.278;entryY=0;entryDx=0;entryDy=0;entryPerimeter=0;" parent="1" edge="1">
          <mxGeometry width="50" height="50" relative="1" as="geometry">
            <mxPoint x="367" y="1330" as="sourcePoint" />
            <mxPoint x="367.2600000000001" y="1380" as="targetPoint" />
          </mxGeometry>
        </mxCell>
        <mxCell id="rh09vBjYHS_wtcfZ574y-60" value="" style="endArrow=classic;html=1;rounded=0;entryX=0.055;entryY=-0.011;entryDx=0;entryDy=0;entryPerimeter=0;" parent="1" edge="1">
          <mxGeometry width="50" height="50" relative="1" as="geometry">
            <mxPoint x="537" y="1330" as="sourcePoint" />
            <mxPoint x="537.26" y="1380" as="targetPoint" />
          </mxGeometry>
        </mxCell>
        <mxCell id="rh09vBjYHS_wtcfZ574y-61" value="" style="endArrow=classic;html=1;rounded=0;entryX=0.278;entryY=0;entryDx=0;entryDy=0;entryPerimeter=0;" parent="1" edge="1">
          <mxGeometry width="50" height="50" relative="1" as="geometry">
            <mxPoint x="577" y="1330" as="sourcePoint" />
            <mxPoint x="577.2600000000001" y="1380" as="targetPoint" />
          </mxGeometry>
        </mxCell>
        <mxCell id="rh09vBjYHS_wtcfZ574y-62" value="" style="endArrow=classic;html=1;rounded=0;entryX=0.278;entryY=0;entryDx=0;entryDy=0;entryPerimeter=0;" parent="1" edge="1">
          <mxGeometry width="50" height="50" relative="1" as="geometry">
            <mxPoint x="622" y="1330" as="sourcePoint" />
            <mxPoint x="622.2600000000001" y="1380" as="targetPoint" />
          </mxGeometry>
        </mxCell>
        <mxCell id="rh09vBjYHS_wtcfZ574y-63" value="" style="endArrow=classic;html=1;rounded=0;entryX=0.278;entryY=0;entryDx=0;entryDy=0;entryPerimeter=0;" parent="1" edge="1">
          <mxGeometry width="50" height="50" relative="1" as="geometry">
            <mxPoint x="667" y="1330" as="sourcePoint" />
            <mxPoint x="667.2600000000001" y="1380" as="targetPoint" />
          </mxGeometry>
        </mxCell>
        <mxCell id="rh09vBjYHS_wtcfZ574y-64" value="" style="endArrow=classic;html=1;rounded=0;entryX=0.055;entryY=-0.011;entryDx=0;entryDy=0;entryPerimeter=0;" parent="1" edge="1">
          <mxGeometry width="50" height="50" relative="1" as="geometry">
            <mxPoint x="820" y="1330" as="sourcePoint" />
            <mxPoint x="819.76" y="1380" as="targetPoint" />
          </mxGeometry>
        </mxCell>
        <mxCell id="rh09vBjYHS_wtcfZ574y-65" value="" style="endArrow=classic;html=1;rounded=0;entryX=0.278;entryY=0;entryDx=0;entryDy=0;entryPerimeter=0;" parent="1" edge="1">
          <mxGeometry width="50" height="50" relative="1" as="geometry">
            <mxPoint x="860" y="1330" as="sourcePoint" />
            <mxPoint x="859.76" y="1380" as="targetPoint" />
          </mxGeometry>
        </mxCell>
        <mxCell id="rh09vBjYHS_wtcfZ574y-66" value="" style="endArrow=classic;html=1;rounded=0;entryX=0.278;entryY=0;entryDx=0;entryDy=0;entryPerimeter=0;" parent="1" edge="1">
          <mxGeometry width="50" height="50" relative="1" as="geometry">
            <mxPoint x="905" y="1330" as="sourcePoint" />
            <mxPoint x="904.76" y="1380" as="targetPoint" />
          </mxGeometry>
        </mxCell>
        <mxCell id="rh09vBjYHS_wtcfZ574y-67" value="" style="endArrow=classic;html=1;rounded=0;entryX=0.278;entryY=0;entryDx=0;entryDy=0;entryPerimeter=0;" parent="1" edge="1">
          <mxGeometry width="50" height="50" relative="1" as="geometry">
            <mxPoint x="950" y="1330" as="sourcePoint" />
            <mxPoint x="949.76" y="1380" as="targetPoint" />
          </mxGeometry>
        </mxCell>
        <mxCell id="rh09vBjYHS_wtcfZ574y-68" value="" style="endArrow=none;html=1;rounded=0;" parent="1" edge="1">
          <mxGeometry width="50" height="50" relative="1" as="geometry">
            <mxPoint x="237.5" y="1330" as="sourcePoint" />
            <mxPoint x="950" y="1330" as="targetPoint" />
          </mxGeometry>
        </mxCell>
        <mxCell id="rh09vBjYHS_wtcfZ574y-70" value="&lt;font style=&quot;font-size: 16px;&quot; face=&quot;Times New Roman&quot;&gt;Политика безопасности и шифрования&lt;br&gt;&lt;/font&gt;" style="text;html=1;whiteSpace=wrap;strokeColor=none;fillColor=none;align=center;verticalAlign=middle;rounded=0;" parent="1" vertex="1">
          <mxGeometry x="396.25" y="1280" width="120" height="30" as="geometry" />
        </mxCell>
        <mxCell id="rh09vBjYHS_wtcfZ574y-71" value="&lt;div align=&quot;center&quot;&gt;&lt;font style=&quot;font-size: 16px;&quot; face=&quot;Times New Roman&quot;&gt;Законы&lt;/font&gt;&lt;/div&gt;" style="text;whiteSpace=wrap;html=1;align=center;" parent="1" vertex="1">
          <mxGeometry x="743.75" y="1280" width="60" height="40" as="geometry" />
        </mxCell>
        <mxCell id="rh09vBjYHS_wtcfZ574y-72" value="&lt;div align=&quot;center&quot;&gt;&lt;font style=&quot;font-size: 16px;&quot; face=&quot;Times New Roman&quot;&gt;Метод шифрования&lt;/font&gt;&lt;/div&gt;" style="text;html=1;whiteSpace=wrap;strokeColor=none;fillColor=none;align=center;verticalAlign=middle;rounded=0;" parent="1" vertex="1">
          <mxGeometry x="653.75" y="1280" width="60" height="30" as="geometry" />
        </mxCell>
        <mxCell id="rh09vBjYHS_wtcfZ574y-73" value="&lt;font style=&quot;font-size: 16px;&quot; face=&quot;Times New Roman&quot;&gt;Протоколы обмена информацией&lt;font&gt;&lt;br&gt;&lt;/font&gt;&lt;/font&gt;" style="text;html=1;whiteSpace=wrap;strokeColor=none;fillColor=none;align=center;verticalAlign=middle;rounded=0;" parent="1" vertex="1">
          <mxGeometry x="546.25" y="1280" width="60" height="30" as="geometry" />
        </mxCell>
        <mxCell id="rh09vBjYHS_wtcfZ574y-74" value="&lt;font style=&quot;font-size: 16px;&quot; face=&quot;Times New Roman&quot;&gt;Серверное приложение&lt;/font&gt;" style="text;html=1;whiteSpace=wrap;strokeColor=none;fillColor=none;align=center;verticalAlign=middle;rounded=0;" parent="1" vertex="1">
          <mxGeometry x="635" y="1590" width="60" height="30" as="geometry" />
        </mxCell>
        <mxCell id="rh09vBjYHS_wtcfZ574y-75" value="&lt;font style=&quot;font-size: 16px;&quot; face=&quot;Times New Roman&quot;&gt;Клиентское приложение&lt;/font&gt;" style="text;html=1;whiteSpace=wrap;strokeColor=none;fillColor=none;align=center;verticalAlign=middle;rounded=0;" parent="1" vertex="1">
          <mxGeometry x="735" y="1590" width="60" height="30" as="geometry" />
        </mxCell>
        <mxCell id="rh09vBjYHS_wtcfZ574y-76" value="&lt;font style=&quot;font-size: 16px;&quot; face=&quot;Times New Roman&quot;&gt;Криптобиблиотеки&lt;/font&gt;" style="text;html=1;whiteSpace=wrap;strokeColor=none;fillColor=none;align=center;verticalAlign=middle;rounded=0;" parent="1" vertex="1">
          <mxGeometry x="500" y="1595" width="95" height="20" as="geometry" />
        </mxCell>
        <mxCell id="rh09vBjYHS_wtcfZ574y-77" value="&lt;div&gt;&lt;font style=&quot;font-size: 16px;&quot; face=&quot;Times New Roman&quot;&gt;База данных&lt;/font&gt;&lt;/div&gt;" style="text;html=1;whiteSpace=wrap;strokeColor=none;fillColor=none;align=center;verticalAlign=middle;rounded=0;" parent="1" vertex="1">
          <mxGeometry x="405" y="1590" width="60" height="30" as="geometry" />
        </mxCell>
        <mxCell id="rh09vBjYHS_wtcfZ574y-79" value="&lt;font style=&quot;font-size: 20px;&quot; face=&quot;Times New Roman&quot;&gt;Аутентификация клиента&lt;/font&gt;" style="whiteSpace=wrap;html=1;aspect=fixed;fillColor=default;gradientColor=none;opacity=60;" parent="1" vertex="1">
          <mxGeometry x="782.5" y="500" width="180" height="180" as="geometry" />
        </mxCell>
        <mxCell id="rh09vBjYHS_wtcfZ574y-80" value="" style="endArrow=classic;html=1;rounded=0;exitX=1;exitY=0.75;exitDx=0;exitDy=0;entryX=-0.014;entryY=0.326;entryDx=0;entryDy=0;entryPerimeter=0;" parent="1" target="1uvmOw3570o56GvqnE3Y-26" edge="1">
          <mxGeometry width="50" height="50" relative="1" as="geometry">
            <mxPoint x="962.5" y="558.82" as="sourcePoint" />
            <mxPoint x="1131.42" y="559.39" as="targetPoint" />
          </mxGeometry>
        </mxCell>
        <mxCell id="rh09vBjYHS_wtcfZ574y-81" value="&lt;font style=&quot;font-size: 16px;&quot; face=&quot;Times New Roman&quot;&gt;Аутентифицированный клиент&lt;/font&gt;" style="text;html=1;whiteSpace=wrap;strokeColor=none;fillColor=none;align=center;verticalAlign=middle;rounded=0;" parent="1" vertex="1">
          <mxGeometry x="1017.5" y="520" width="60" height="30" as="geometry" />
        </mxCell>
        <mxCell id="rh09vBjYHS_wtcfZ574y-83" value="" style="endArrow=classic;html=1;rounded=0;exitX=1;exitY=0.75;exitDx=0;exitDy=0;entryX=0;entryY=0.5;entryDx=0;entryDy=0;" parent="1" target="rh09vBjYHS_wtcfZ574y-79" edge="1">
          <mxGeometry width="50" height="50" relative="1" as="geometry">
            <mxPoint x="680" y="589.71" as="sourcePoint" />
            <mxPoint x="777.5" y="590" as="targetPoint" />
          </mxGeometry>
        </mxCell>
        <mxCell id="rh09vBjYHS_wtcfZ574y-84" value="&lt;font style=&quot;font-size: 16px;&quot; face=&quot;Times New Roman&quot;&gt;Защищенное соединение&lt;/font&gt;" style="text;html=1;whiteSpace=wrap;strokeColor=none;fillColor=none;align=center;verticalAlign=middle;rounded=0;" parent="1" vertex="1">
          <mxGeometry x="701.25" y="550" width="60" height="30" as="geometry" />
        </mxCell>
        <mxCell id="rh09vBjYHS_wtcfZ574y-91" value="" style="endArrow=classic;html=1;rounded=0;fontFamily=Helvetica;fontSize=12;fontColor=default;exitX=0.997;exitY=0.568;exitDx=0;exitDy=0;exitPerimeter=0;" parent="1" edge="1">
          <mxGeometry width="50" height="50" relative="1" as="geometry">
            <mxPoint x="1318" y="589.8800000000001" as="sourcePoint" />
            <mxPoint x="1377.5" y="590" as="targetPoint" />
          </mxGeometry>
        </mxCell>
        <mxCell id="rh09vBjYHS_wtcfZ574y-100" value="&lt;font face=&quot;Times New Roman&quot; style=&quot;font-size: 16px;&quot;&gt;Подключенный клиент&lt;/font&gt;" style="text;whiteSpace=wrap;html=1;align=center;" parent="1" vertex="1">
          <mxGeometry x="40" y="1435" width="140" height="40" as="geometry" />
        </mxCell>
        <mxCell id="rh09vBjYHS_wtcfZ574y-101" value="" style="endArrow=classic;html=1;rounded=0;exitX=1;exitY=0.469;exitDx=0;exitDy=0;exitPerimeter=0;entryX=0;entryY=0.5;entryDx=0;entryDy=0;" parent="1" target="rh09vBjYHS_wtcfZ574y-102" edge="1">
          <mxGeometry width="50" height="50" relative="1" as="geometry">
            <mxPoint x="670" y="1045" as="sourcePoint" />
            <mxPoint x="760" y="1045" as="targetPoint" />
          </mxGeometry>
        </mxCell>
        <mxCell id="rh09vBjYHS_wtcfZ574y-102" value="&lt;font style=&quot;font-size: 20px;&quot; face=&quot;Times New Roman&quot;&gt;Создание канала для обмена информацией&lt;/font&gt;" style="whiteSpace=wrap;html=1;aspect=fixed;fillColor=default;gradientColor=none;opacity=60;" parent="1" vertex="1">
          <mxGeometry x="782.5" y="965" width="160" height="160" as="geometry" />
        </mxCell>
        <mxCell id="rh09vBjYHS_wtcfZ574y-103" value="&lt;font style=&quot;font-size: 16px;&quot; face=&quot;Times New Roman&quot;&gt;Сохраненный IP адрес и порт&lt;/font&gt;" style="text;html=1;whiteSpace=wrap;strokeColor=none;fillColor=none;align=center;verticalAlign=middle;rounded=0;" parent="1" vertex="1">
          <mxGeometry x="672.5" y="1005" width="110" height="30" as="geometry" />
        </mxCell>
        <mxCell id="rh09vBjYHS_wtcfZ574y-106" value="" style="endArrow=classic;html=1;rounded=0;entryX=0.198;entryY=1.01;entryDx=0;entryDy=0;entryPerimeter=0;" parent="1" edge="1">
          <mxGeometry width="50" height="50" relative="1" as="geometry">
            <mxPoint x="797.46" y="1170" as="sourcePoint" />
            <mxPoint x="797.35" y="1125" as="targetPoint" />
          </mxGeometry>
        </mxCell>
        <mxCell id="rh09vBjYHS_wtcfZ574y-107" value="" style="endArrow=classic;html=1;rounded=0;" parent="1" edge="1">
          <mxGeometry width="50" height="50" relative="1" as="geometry">
            <mxPoint x="836.46" y="1170" as="sourcePoint" />
            <mxPoint x="836.4699999999999" y="1125" as="targetPoint" />
          </mxGeometry>
        </mxCell>
        <mxCell id="rh09vBjYHS_wtcfZ574y-108" value="" style="endArrow=classic;html=1;rounded=0;" parent="1" edge="1">
          <mxGeometry width="50" height="50" relative="1" as="geometry">
            <mxPoint x="882.46" y="1170" as="sourcePoint" />
            <mxPoint x="882.2099999999999" y="1125" as="targetPoint" />
          </mxGeometry>
        </mxCell>
        <mxCell id="rh09vBjYHS_wtcfZ574y-109" value="" style="endArrow=classic;html=1;rounded=0;" parent="1" edge="1">
          <mxGeometry width="50" height="50" relative="1" as="geometry">
            <mxPoint x="927.46" y="1170" as="sourcePoint" />
            <mxPoint x="927.2099999999999" y="1125" as="targetPoint" />
          </mxGeometry>
        </mxCell>
        <mxCell id="rh09vBjYHS_wtcfZ574y-110" value="" style="endArrow=classic;html=1;rounded=0;entryX=0.055;entryY=-0.011;entryDx=0;entryDy=0;entryPerimeter=0;" parent="1" edge="1">
          <mxGeometry width="50" height="50" relative="1" as="geometry">
            <mxPoint x="797.2400000000001" y="920" as="sourcePoint" />
            <mxPoint x="797.24" y="965" as="targetPoint" />
          </mxGeometry>
        </mxCell>
        <mxCell id="rh09vBjYHS_wtcfZ574y-111" value="" style="endArrow=classic;html=1;rounded=0;entryX=0.278;entryY=0;entryDx=0;entryDy=0;entryPerimeter=0;" parent="1" edge="1">
          <mxGeometry width="50" height="50" relative="1" as="geometry">
            <mxPoint x="837.2400000000001" y="920" as="sourcePoint" />
            <mxPoint x="837.2400000000002" y="965" as="targetPoint" />
          </mxGeometry>
        </mxCell>
        <mxCell id="rh09vBjYHS_wtcfZ574y-112" value="" style="endArrow=classic;html=1;rounded=0;entryX=0.278;entryY=0;entryDx=0;entryDy=0;entryPerimeter=0;" parent="1" edge="1">
          <mxGeometry width="50" height="50" relative="1" as="geometry">
            <mxPoint x="882.2400000000001" y="920" as="sourcePoint" />
            <mxPoint x="882.2400000000002" y="965" as="targetPoint" />
          </mxGeometry>
        </mxCell>
        <mxCell id="rh09vBjYHS_wtcfZ574y-113" value="" style="endArrow=classic;html=1;rounded=0;entryX=0.278;entryY=0;entryDx=0;entryDy=0;entryPerimeter=0;" parent="1" edge="1">
          <mxGeometry width="50" height="50" relative="1" as="geometry">
            <mxPoint x="927.2400000000001" y="920" as="sourcePoint" />
            <mxPoint x="927.2400000000002" y="965" as="targetPoint" />
          </mxGeometry>
        </mxCell>
        <mxCell id="rh09vBjYHS_wtcfZ574y-114" value="" style="endArrow=classic;html=1;rounded=0;exitX=1;exitY=0.465;exitDx=0;exitDy=0;exitPerimeter=0;" parent="1" edge="1">
          <mxGeometry width="50" height="50" relative="1" as="geometry">
            <mxPoint x="965" y="1459.57" as="sourcePoint" />
            <mxPoint x="1022" y="1459.57" as="targetPoint" />
          </mxGeometry>
        </mxCell>
        <mxCell id="rh09vBjYHS_wtcfZ574y-115" value="&lt;font style=&quot;font-size: 20px;&quot; face=&quot;Times New Roman&quot;&gt;Ввод логина и пароля клиентом&lt;/font&gt;" style="whiteSpace=wrap;html=1;aspect=fixed;fillColor=default;gradientColor=none;opacity=60;" parent="1" vertex="1">
          <mxGeometry x="225" y="1780" width="160" height="160" as="geometry" />
        </mxCell>
        <mxCell id="rh09vBjYHS_wtcfZ574y-116" value="" style="endArrow=classic;html=1;rounded=0;" parent="1" edge="1">
          <mxGeometry width="50" height="50" relative="1" as="geometry">
            <mxPoint x="165" y="1859.4099999999999" as="sourcePoint" />
            <mxPoint x="225" y="1859.4099999999999" as="targetPoint" />
          </mxGeometry>
        </mxCell>
        <mxCell id="rh09vBjYHS_wtcfZ574y-117" value="&lt;font style=&quot;font-size: 20px;&quot; face=&quot;Times New Roman&quot;&gt;Проверка введенных данных&amp;nbsp;&amp;nbsp;&lt;/font&gt;" style="whiteSpace=wrap;html=1;aspect=fixed;fillColor=default;gradientColor=none;opacity=60;" parent="1" vertex="1">
          <mxGeometry x="525" y="1780" width="160" height="160" as="geometry" />
        </mxCell>
        <mxCell id="rh09vBjYHS_wtcfZ574y-118" value="" style="endArrow=classic;html=1;rounded=0;entryX=-0.004;entryY=0.289;entryDx=0;entryDy=0;entryPerimeter=0;" parent="1" edge="1">
          <mxGeometry width="50" height="50" relative="1" as="geometry">
            <mxPoint x="385" y="1859.41" as="sourcePoint" />
            <mxPoint x="525" y="1860.41" as="targetPoint" />
          </mxGeometry>
        </mxCell>
        <mxCell id="rh09vBjYHS_wtcfZ574y-119" value="" style="endArrow=classic;html=1;rounded=0;" parent="1" edge="1">
          <mxGeometry width="50" height="50" relative="1" as="geometry">
            <mxPoint x="685" y="1865" as="sourcePoint" />
            <mxPoint x="810" y="1865" as="targetPoint" />
          </mxGeometry>
        </mxCell>
        <mxCell id="rh09vBjYHS_wtcfZ574y-120" value="&lt;font style=&quot;font-size: 16px;&quot; face=&quot;Times New Roman&quot;&gt;Ответ клиенту&lt;/font&gt;" style="text;whiteSpace=wrap;html=1;align=center;" parent="1" vertex="1">
          <mxGeometry x="678.75" y="1830" width="140" height="40" as="geometry" />
        </mxCell>
        <mxCell id="rh09vBjYHS_wtcfZ574y-121" value="&lt;font style=&quot;font-size: 16px;&quot; face=&quot;Times New Roman&quot;&gt;Аутентицифированный клиент&lt;/font&gt;" style="text;whiteSpace=wrap;html=1;align=center;" parent="1" vertex="1">
          <mxGeometry x="1000" y="1780" width="140" height="40" as="geometry" />
        </mxCell>
        <mxCell id="rh09vBjYHS_wtcfZ574y-122" value="&lt;font style=&quot;font-size: 16px;&quot; face=&quot;Times New Roman&quot;&gt;Передача данных серверу&lt;/font&gt;" style="text;html=1;whiteSpace=wrap;strokeColor=none;fillColor=none;align=center;verticalAlign=middle;rounded=0;" parent="1" vertex="1">
          <mxGeometry x="387.5" y="1820" width="130.31" height="30" as="geometry" />
        </mxCell>
        <mxCell id="rh09vBjYHS_wtcfZ574y-123" value="&lt;font style=&quot;font-size: 20px;&quot; face=&quot;Times New Roman&quot;&gt;Подключение к чату&lt;/font&gt;" style="whiteSpace=wrap;html=1;aspect=fixed;fillColor=default;gradientColor=none;opacity=60;" parent="1" vertex="1">
          <mxGeometry x="810" y="1780" width="160" height="160" as="geometry" />
        </mxCell>
        <mxCell id="rh09vBjYHS_wtcfZ574y-124" value="" style="endArrow=none;html=1;rounded=0;" parent="1" edge="1">
          <mxGeometry width="50" height="50" relative="1" as="geometry">
            <mxPoint x="240" y="1980" as="sourcePoint" />
            <mxPoint x="960" y="1980" as="targetPoint" />
          </mxGeometry>
        </mxCell>
        <mxCell id="rh09vBjYHS_wtcfZ574y-125" value="" style="endArrow=classic;html=1;rounded=0;entryX=0.198;entryY=1.01;entryDx=0;entryDy=0;entryPerimeter=0;" parent="1" edge="1">
          <mxGeometry width="50" height="50" relative="1" as="geometry">
            <mxPoint x="240" y="1980" as="sourcePoint" />
            <mxPoint x="239.76999999999998" y="1940" as="targetPoint" />
          </mxGeometry>
        </mxCell>
        <mxCell id="rh09vBjYHS_wtcfZ574y-126" value="" style="endArrow=classic;html=1;rounded=0;entryX=0.345;entryY=1.002;entryDx=0;entryDy=0;entryPerimeter=0;" parent="1" target="rh09vBjYHS_wtcfZ574y-115" edge="1">
          <mxGeometry width="50" height="50" relative="1" as="geometry">
            <mxPoint x="280" y="1980" as="sourcePoint" />
            <mxPoint x="278.8899999999999" y="1940" as="targetPoint" />
          </mxGeometry>
        </mxCell>
        <mxCell id="rh09vBjYHS_wtcfZ574y-127" value="" style="endArrow=classic;html=1;rounded=0;" parent="1" edge="1">
          <mxGeometry width="50" height="50" relative="1" as="geometry">
            <mxPoint x="325" y="1980" as="sourcePoint" />
            <mxPoint x="324.6299999999999" y="1940" as="targetPoint" />
          </mxGeometry>
        </mxCell>
        <mxCell id="rh09vBjYHS_wtcfZ574y-128" value="" style="endArrow=classic;html=1;rounded=0;" parent="1" edge="1">
          <mxGeometry width="50" height="50" relative="1" as="geometry">
            <mxPoint x="370" y="1980" as="sourcePoint" />
            <mxPoint x="369.6299999999999" y="1940" as="targetPoint" />
          </mxGeometry>
        </mxCell>
        <mxCell id="rh09vBjYHS_wtcfZ574y-129" value="" style="endArrow=classic;html=1;rounded=0;entryX=0.198;entryY=1.01;entryDx=0;entryDy=0;entryPerimeter=0;" parent="1" edge="1">
          <mxGeometry width="50" height="50" relative="1" as="geometry">
            <mxPoint x="539.94" y="1980" as="sourcePoint" />
            <mxPoint x="539.71" y="1940" as="targetPoint" />
          </mxGeometry>
        </mxCell>
        <mxCell id="rh09vBjYHS_wtcfZ574y-130" value="" style="endArrow=classic;html=1;rounded=0;entryX=0.345;entryY=1.002;entryDx=0;entryDy=0;entryPerimeter=0;" parent="1" edge="1">
          <mxGeometry width="50" height="50" relative="1" as="geometry">
            <mxPoint x="579.94" y="1980" as="sourcePoint" />
            <mxPoint x="579.94" y="1940" as="targetPoint" />
          </mxGeometry>
        </mxCell>
        <mxCell id="rh09vBjYHS_wtcfZ574y-131" value="" style="endArrow=classic;html=1;rounded=0;" parent="1" edge="1">
          <mxGeometry width="50" height="50" relative="1" as="geometry">
            <mxPoint x="624.94" y="1980" as="sourcePoint" />
            <mxPoint x="624.5699999999999" y="1940" as="targetPoint" />
          </mxGeometry>
        </mxCell>
        <mxCell id="rh09vBjYHS_wtcfZ574y-132" value="" style="endArrow=classic;html=1;rounded=0;" parent="1" edge="1">
          <mxGeometry width="50" height="50" relative="1" as="geometry">
            <mxPoint x="669.94" y="1980" as="sourcePoint" />
            <mxPoint x="669.5699999999999" y="1940" as="targetPoint" />
          </mxGeometry>
        </mxCell>
        <mxCell id="rh09vBjYHS_wtcfZ574y-133" value="" style="endArrow=classic;html=1;rounded=0;entryX=0.198;entryY=1.01;entryDx=0;entryDy=0;entryPerimeter=0;" parent="1" edge="1">
          <mxGeometry width="50" height="50" relative="1" as="geometry">
            <mxPoint x="830.23" y="1980" as="sourcePoint" />
            <mxPoint x="830" y="1940" as="targetPoint" />
          </mxGeometry>
        </mxCell>
        <mxCell id="rh09vBjYHS_wtcfZ574y-134" value="" style="endArrow=classic;html=1;rounded=0;entryX=0.345;entryY=1.002;entryDx=0;entryDy=0;entryPerimeter=0;" parent="1" edge="1">
          <mxGeometry width="50" height="50" relative="1" as="geometry">
            <mxPoint x="870.23" y="1980" as="sourcePoint" />
            <mxPoint x="870.23" y="1940" as="targetPoint" />
          </mxGeometry>
        </mxCell>
        <mxCell id="rh09vBjYHS_wtcfZ574y-135" value="" style="endArrow=classic;html=1;rounded=0;" parent="1" edge="1">
          <mxGeometry width="50" height="50" relative="1" as="geometry">
            <mxPoint x="915.23" y="1980" as="sourcePoint" />
            <mxPoint x="914.8599999999999" y="1940" as="targetPoint" />
          </mxGeometry>
        </mxCell>
        <mxCell id="rh09vBjYHS_wtcfZ574y-136" value="" style="endArrow=classic;html=1;rounded=0;" parent="1" edge="1">
          <mxGeometry width="50" height="50" relative="1" as="geometry">
            <mxPoint x="960.23" y="1980" as="sourcePoint" />
            <mxPoint x="959.8599999999999" y="1940" as="targetPoint" />
          </mxGeometry>
        </mxCell>
        <mxCell id="rh09vBjYHS_wtcfZ574y-137" value="" style="endArrow=classic;html=1;rounded=0;entryX=0.055;entryY=-0.011;entryDx=0;entryDy=0;entryPerimeter=0;" parent="1" edge="1">
          <mxGeometry width="50" height="50" relative="1" as="geometry">
            <mxPoint x="242" y="1730" as="sourcePoint" />
            <mxPoint x="242.26" y="1780" as="targetPoint" />
          </mxGeometry>
        </mxCell>
        <mxCell id="rh09vBjYHS_wtcfZ574y-138" value="" style="endArrow=classic;html=1;rounded=0;entryX=0.278;entryY=0;entryDx=0;entryDy=0;entryPerimeter=0;" parent="1" edge="1">
          <mxGeometry width="50" height="50" relative="1" as="geometry">
            <mxPoint x="282" y="1730" as="sourcePoint" />
            <mxPoint x="282.2600000000001" y="1780" as="targetPoint" />
          </mxGeometry>
        </mxCell>
        <mxCell id="rh09vBjYHS_wtcfZ574y-139" value="" style="endArrow=classic;html=1;rounded=0;entryX=0.278;entryY=0;entryDx=0;entryDy=0;entryPerimeter=0;" parent="1" edge="1">
          <mxGeometry width="50" height="50" relative="1" as="geometry">
            <mxPoint x="327" y="1730" as="sourcePoint" />
            <mxPoint x="327.2600000000001" y="1780" as="targetPoint" />
          </mxGeometry>
        </mxCell>
        <mxCell id="rh09vBjYHS_wtcfZ574y-140" value="" style="endArrow=classic;html=1;rounded=0;entryX=0.278;entryY=0;entryDx=0;entryDy=0;entryPerimeter=0;" parent="1" edge="1">
          <mxGeometry width="50" height="50" relative="1" as="geometry">
            <mxPoint x="372" y="1730" as="sourcePoint" />
            <mxPoint x="372.2600000000002" y="1780" as="targetPoint" />
          </mxGeometry>
        </mxCell>
        <mxCell id="rh09vBjYHS_wtcfZ574y-141" value="" style="endArrow=classic;html=1;rounded=0;entryX=0.055;entryY=-0.011;entryDx=0;entryDy=0;entryPerimeter=0;" parent="1" edge="1">
          <mxGeometry width="50" height="50" relative="1" as="geometry">
            <mxPoint x="542" y="1730" as="sourcePoint" />
            <mxPoint x="542.26" y="1780" as="targetPoint" />
          </mxGeometry>
        </mxCell>
        <mxCell id="rh09vBjYHS_wtcfZ574y-142" value="" style="endArrow=classic;html=1;rounded=0;entryX=0.278;entryY=0;entryDx=0;entryDy=0;entryPerimeter=0;" parent="1" edge="1">
          <mxGeometry width="50" height="50" relative="1" as="geometry">
            <mxPoint x="582" y="1730" as="sourcePoint" />
            <mxPoint x="582.2600000000002" y="1780" as="targetPoint" />
          </mxGeometry>
        </mxCell>
        <mxCell id="rh09vBjYHS_wtcfZ574y-143" value="" style="endArrow=classic;html=1;rounded=0;entryX=0.278;entryY=0;entryDx=0;entryDy=0;entryPerimeter=0;" parent="1" edge="1">
          <mxGeometry width="50" height="50" relative="1" as="geometry">
            <mxPoint x="627" y="1730" as="sourcePoint" />
            <mxPoint x="627.2600000000002" y="1780" as="targetPoint" />
          </mxGeometry>
        </mxCell>
        <mxCell id="rh09vBjYHS_wtcfZ574y-144" value="" style="endArrow=classic;html=1;rounded=0;entryX=0.278;entryY=0;entryDx=0;entryDy=0;entryPerimeter=0;" parent="1" edge="1">
          <mxGeometry width="50" height="50" relative="1" as="geometry">
            <mxPoint x="672" y="1730" as="sourcePoint" />
            <mxPoint x="672.2600000000002" y="1780" as="targetPoint" />
          </mxGeometry>
        </mxCell>
        <mxCell id="rh09vBjYHS_wtcfZ574y-145" value="" style="endArrow=classic;html=1;rounded=0;entryX=0.055;entryY=-0.011;entryDx=0;entryDy=0;entryPerimeter=0;" parent="1" edge="1">
          <mxGeometry width="50" height="50" relative="1" as="geometry">
            <mxPoint x="825" y="1730" as="sourcePoint" />
            <mxPoint x="824.76" y="1780" as="targetPoint" />
          </mxGeometry>
        </mxCell>
        <mxCell id="rh09vBjYHS_wtcfZ574y-146" value="" style="endArrow=classic;html=1;rounded=0;entryX=0.278;entryY=0;entryDx=0;entryDy=0;entryPerimeter=0;" parent="1" edge="1">
          <mxGeometry width="50" height="50" relative="1" as="geometry">
            <mxPoint x="865" y="1730" as="sourcePoint" />
            <mxPoint x="864.76" y="1780" as="targetPoint" />
          </mxGeometry>
        </mxCell>
        <mxCell id="rh09vBjYHS_wtcfZ574y-147" value="" style="endArrow=classic;html=1;rounded=0;entryX=0.278;entryY=0;entryDx=0;entryDy=0;entryPerimeter=0;" parent="1" edge="1">
          <mxGeometry width="50" height="50" relative="1" as="geometry">
            <mxPoint x="910" y="1730" as="sourcePoint" />
            <mxPoint x="909.76" y="1780" as="targetPoint" />
          </mxGeometry>
        </mxCell>
        <mxCell id="rh09vBjYHS_wtcfZ574y-148" value="" style="endArrow=classic;html=1;rounded=0;entryX=0.278;entryY=0;entryDx=0;entryDy=0;entryPerimeter=0;" parent="1" edge="1">
          <mxGeometry width="50" height="50" relative="1" as="geometry">
            <mxPoint x="955" y="1730" as="sourcePoint" />
            <mxPoint x="954.76" y="1780" as="targetPoint" />
          </mxGeometry>
        </mxCell>
        <mxCell id="rh09vBjYHS_wtcfZ574y-149" value="" style="endArrow=none;html=1;rounded=0;" parent="1" edge="1">
          <mxGeometry width="50" height="50" relative="1" as="geometry">
            <mxPoint x="242.5" y="1730" as="sourcePoint" />
            <mxPoint x="955" y="1730" as="targetPoint" />
          </mxGeometry>
        </mxCell>
        <mxCell id="rh09vBjYHS_wtcfZ574y-150" value="&lt;font style=&quot;font-size: 16px;&quot; face=&quot;Times New Roman&quot;&gt;Политика безопасности и шифрования&lt;br&gt;&lt;/font&gt;" style="text;html=1;whiteSpace=wrap;strokeColor=none;fillColor=none;align=center;verticalAlign=middle;rounded=0;" parent="1" vertex="1">
          <mxGeometry x="401.25" y="1680" width="120" height="30" as="geometry" />
        </mxCell>
        <mxCell id="rh09vBjYHS_wtcfZ574y-151" value="&lt;div align=&quot;center&quot;&gt;&lt;font style=&quot;font-size: 16px;&quot; face=&quot;Times New Roman&quot;&gt;Законы&lt;/font&gt;&lt;/div&gt;" style="text;whiteSpace=wrap;html=1;align=center;" parent="1" vertex="1">
          <mxGeometry x="748.75" y="1680" width="60" height="40" as="geometry" />
        </mxCell>
        <mxCell id="rh09vBjYHS_wtcfZ574y-152" value="&lt;div align=&quot;center&quot;&gt;&lt;font style=&quot;font-size: 16px;&quot; face=&quot;Times New Roman&quot;&gt;Метод шифрования&lt;/font&gt;&lt;/div&gt;" style="text;html=1;whiteSpace=wrap;strokeColor=none;fillColor=none;align=center;verticalAlign=middle;rounded=0;" parent="1" vertex="1">
          <mxGeometry x="658.75" y="1680" width="60" height="30" as="geometry" />
        </mxCell>
        <mxCell id="rh09vBjYHS_wtcfZ574y-153" value="&lt;font style=&quot;font-size: 16px;&quot; face=&quot;Times New Roman&quot;&gt;Протоколы обмена информацией&lt;font&gt;&lt;br&gt;&lt;/font&gt;&lt;/font&gt;" style="text;html=1;whiteSpace=wrap;strokeColor=none;fillColor=none;align=center;verticalAlign=middle;rounded=0;" parent="1" vertex="1">
          <mxGeometry x="551.25" y="1680" width="60" height="30" as="geometry" />
        </mxCell>
        <mxCell id="rh09vBjYHS_wtcfZ574y-154" value="&lt;font style=&quot;font-size: 16px;&quot; face=&quot;Times New Roman&quot;&gt;Серверное приложение&lt;/font&gt;" style="text;html=1;whiteSpace=wrap;strokeColor=none;fillColor=none;align=center;verticalAlign=middle;rounded=0;" parent="1" vertex="1">
          <mxGeometry x="640" y="1990" width="60" height="30" as="geometry" />
        </mxCell>
        <mxCell id="rh09vBjYHS_wtcfZ574y-155" value="&lt;font style=&quot;font-size: 16px;&quot; face=&quot;Times New Roman&quot;&gt;Клиентское приложение&lt;/font&gt;" style="text;html=1;whiteSpace=wrap;strokeColor=none;fillColor=none;align=center;verticalAlign=middle;rounded=0;" parent="1" vertex="1">
          <mxGeometry x="740" y="1990" width="60" height="30" as="geometry" />
        </mxCell>
        <mxCell id="rh09vBjYHS_wtcfZ574y-156" value="&lt;font style=&quot;font-size: 16px;&quot; face=&quot;Times New Roman&quot;&gt;Криптобиблиотеки&lt;/font&gt;" style="text;html=1;whiteSpace=wrap;strokeColor=none;fillColor=none;align=center;verticalAlign=middle;rounded=0;" parent="1" vertex="1">
          <mxGeometry x="505" y="1995" width="95" height="20" as="geometry" />
        </mxCell>
        <mxCell id="rh09vBjYHS_wtcfZ574y-157" value="&lt;div&gt;&lt;font style=&quot;font-size: 16px;&quot; face=&quot;Times New Roman&quot;&gt;База данных&lt;/font&gt;&lt;/div&gt;" style="text;html=1;whiteSpace=wrap;strokeColor=none;fillColor=none;align=center;verticalAlign=middle;rounded=0;" parent="1" vertex="1">
          <mxGeometry x="410" y="1990" width="60" height="30" as="geometry" />
        </mxCell>
        <mxCell id="rh09vBjYHS_wtcfZ574y-159" value="" style="endArrow=classic;html=1;rounded=0;exitX=1;exitY=0.465;exitDx=0;exitDy=0;exitPerimeter=0;" parent="1" edge="1">
          <mxGeometry width="50" height="50" relative="1" as="geometry">
            <mxPoint x="970" y="1815" as="sourcePoint" />
            <mxPoint x="1027" y="1815" as="targetPoint" />
          </mxGeometry>
        </mxCell>
        <mxCell id="rh09vBjYHS_wtcfZ574y-160" value="&lt;font style=&quot;font-size: 16px;&quot; face=&quot;Times New Roman&quot;&gt;Защищенное соединение&lt;/font&gt;" style="text;whiteSpace=wrap;html=1;align=center;" parent="1" vertex="1">
          <mxGeometry x="45" y="1830" width="140" height="40" as="geometry" />
        </mxCell>
        <mxCell id="rh09vBjYHS_wtcfZ574y-161" value="" style="endArrow=classic;html=1;rounded=0;exitX=1;exitY=0.465;exitDx=0;exitDy=0;exitPerimeter=0;" parent="1" edge="1">
          <mxGeometry width="50" height="50" relative="1" as="geometry">
            <mxPoint x="970" y="1890" as="sourcePoint" />
            <mxPoint x="1027" y="1890" as="targetPoint" />
          </mxGeometry>
        </mxCell>
        <mxCell id="rh09vBjYHS_wtcfZ574y-162" value="&lt;font style=&quot;font-size: 16px;&quot; face=&quot;Times New Roman&quot;&gt;Сообщения клиента&lt;/font&gt;" style="text;whiteSpace=wrap;html=1;align=center;" parent="1" vertex="1">
          <mxGeometry x="1005" y="1860" width="130" height="40" as="geometry" />
        </mxCell>
        <mxCell id="rh09vBjYHS_wtcfZ574y-165" value="&lt;font style=&quot;font-size: 16px;&quot; face=&quot;Times New Roman&quot;&gt;Аутентицифированный клиент&lt;/font&gt;" style="text;whiteSpace=wrap;html=1;align=center;" parent="1" vertex="1">
          <mxGeometry x="65" y="2175" width="140" height="40" as="geometry" />
        </mxCell>
        <mxCell id="rh09vBjYHS_wtcfZ574y-166" value="" style="endArrow=classic;html=1;rounded=0;exitX=1;exitY=0.465;exitDx=0;exitDy=0;exitPerimeter=0;" parent="1" edge="1">
          <mxGeometry width="50" height="50" relative="1" as="geometry">
            <mxPoint x="170.5" y="2209.58" as="sourcePoint" />
            <mxPoint x="227.5" y="2209.58" as="targetPoint" />
          </mxGeometry>
        </mxCell>
        <mxCell id="rh09vBjYHS_wtcfZ574y-167" value="" style="endArrow=classic;html=1;rounded=0;exitX=1;exitY=0.465;exitDx=0;exitDy=0;exitPerimeter=0;" parent="1" edge="1">
          <mxGeometry width="50" height="50" relative="1" as="geometry">
            <mxPoint x="170.5" y="2275" as="sourcePoint" />
            <mxPoint x="227.5" y="2275" as="targetPoint" />
          </mxGeometry>
        </mxCell>
        <mxCell id="rh09vBjYHS_wtcfZ574y-168" value="&lt;font style=&quot;font-size: 16px;&quot; face=&quot;Times New Roman&quot;&gt;Сообщения клиента&lt;/font&gt;" style="text;whiteSpace=wrap;html=1;align=center;" parent="1" vertex="1">
          <mxGeometry x="70" y="2245" width="130" height="40" as="geometry" />
        </mxCell>
        <mxCell id="rh09vBjYHS_wtcfZ574y-171" value="&lt;font style=&quot;font-size: 20px;&quot; face=&quot;Times New Roman&quot;&gt;Очистка старых сообщений&lt;/font&gt;" style="whiteSpace=wrap;html=1;aspect=fixed;fillColor=default;gradientColor=none;opacity=60;" parent="1" vertex="1">
          <mxGeometry x="807.5" y="2160" width="160" height="160" as="geometry" />
        </mxCell>
        <mxCell id="rh09vBjYHS_wtcfZ574y-172" value="" style="endArrow=classic;html=1;rounded=0;" parent="1" edge="1">
          <mxGeometry width="50" height="50" relative="1" as="geometry">
            <mxPoint x="697.5" y="2242.41" as="sourcePoint" />
            <mxPoint x="807.5" y="2242" as="targetPoint" />
          </mxGeometry>
        </mxCell>
        <mxCell id="rh09vBjYHS_wtcfZ574y-174" value="&lt;font face=&quot;Times New Roman&quot; style=&quot;font-size: 16px;&quot;&gt;Сохраненные сообщения&lt;/font&gt;" style="text;html=1;whiteSpace=wrap;strokeColor=none;fillColor=none;align=center;verticalAlign=middle;rounded=0;" parent="1" vertex="1">
          <mxGeometry x="673.75" y="2205" width="157.5" height="30" as="geometry" />
        </mxCell>
        <mxCell id="rh09vBjYHS_wtcfZ574y-176" value="&lt;font face=&quot;Times New Roman&quot; style=&quot;font-size: 16px;&quot;&gt;Измененная история чата&lt;/font&gt;" style="text;html=1;whiteSpace=wrap;strokeColor=none;fillColor=none;align=center;verticalAlign=middle;rounded=0;" parent="1" vertex="1">
          <mxGeometry x="956.25" y="2180" width="130" height="30" as="geometry" />
        </mxCell>
        <mxCell id="rh09vBjYHS_wtcfZ574y-177" value="" style="endArrow=classic;html=1;rounded=0;" parent="1" edge="1">
          <mxGeometry width="50" height="50" relative="1" as="geometry">
            <mxPoint x="967.5" y="2285" as="sourcePoint" />
            <mxPoint x="1067.5" y="2285.59" as="targetPoint" />
          </mxGeometry>
        </mxCell>
        <mxCell id="rh09vBjYHS_wtcfZ574y-178" value="&lt;font style=&quot;font-size: 16px;&quot; face=&quot;Times New Roman&quot;&gt;Сохраненные сообщения&lt;/font&gt;" style="text;html=1;whiteSpace=wrap;strokeColor=none;fillColor=none;align=center;verticalAlign=middle;rounded=0;" parent="1" vertex="1">
          <mxGeometry x="951.25" y="2245" width="135" height="30" as="geometry" />
        </mxCell>
        <mxCell id="rh09vBjYHS_wtcfZ574y-179" value="&lt;font style=&quot;font-size: 20px;&quot; face=&quot;Times New Roman&quot;&gt;Рассылка сообщений клиентам&lt;br&gt;&lt;/font&gt;" style="whiteSpace=wrap;html=1;aspect=fixed;fillColor=default;gradientColor=none;opacity=60;" parent="1" vertex="1">
          <mxGeometry x="1067.5" y="2160" width="160" height="160" as="geometry" />
        </mxCell>
        <mxCell id="rh09vBjYHS_wtcfZ574y-180" value="&lt;font face=&quot;Times New Roman&quot; style=&quot;font-size: 16px;&quot;&gt;Доставленные и сохраненные сообщения&lt;/font&gt;" style="text;html=1;whiteSpace=wrap;strokeColor=none;fillColor=none;align=center;verticalAlign=middle;rounded=0;" parent="1" vertex="1">
          <mxGeometry x="1277.5" y="2228" width="170" height="30" as="geometry" />
        </mxCell>
        <mxCell id="rh09vBjYHS_wtcfZ574y-181" value="" style="endArrow=classic;html=1;rounded=0;" parent="1" edge="1">
          <mxGeometry width="50" height="50" relative="1" as="geometry">
            <mxPoint x="1227.5" y="2245" as="sourcePoint" />
            <mxPoint x="1287.5" y="2245" as="targetPoint" />
          </mxGeometry>
        </mxCell>
        <mxCell id="rh09vBjYHS_wtcfZ574y-182" value="" style="endArrow=none;html=1;rounded=0;" parent="1" edge="1">
          <mxGeometry width="50" height="50" relative="1" as="geometry">
            <mxPoint x="240" y="2360" as="sourcePoint" />
            <mxPoint x="1217.5" y="2360" as="targetPoint" />
          </mxGeometry>
        </mxCell>
        <mxCell id="rh09vBjYHS_wtcfZ574y-183" value="" style="endArrow=classic;html=1;rounded=0;entryX=0.198;entryY=1.01;entryDx=0;entryDy=0;entryPerimeter=0;" parent="1" edge="1">
          <mxGeometry width="50" height="50" relative="1" as="geometry">
            <mxPoint x="240.07999999999998" y="2360" as="sourcePoint" />
            <mxPoint x="239.84999999999997" y="2320" as="targetPoint" />
          </mxGeometry>
        </mxCell>
        <mxCell id="rh09vBjYHS_wtcfZ574y-184" value="" style="endArrow=classic;html=1;rounded=0;entryX=0.345;entryY=1.002;entryDx=0;entryDy=0;entryPerimeter=0;" parent="1" edge="1">
          <mxGeometry width="50" height="50" relative="1" as="geometry">
            <mxPoint x="280.08000000000004" y="2360" as="sourcePoint" />
            <mxPoint x="280.08000000000004" y="2320" as="targetPoint" />
          </mxGeometry>
        </mxCell>
        <mxCell id="rh09vBjYHS_wtcfZ574y-185" value="" style="endArrow=classic;html=1;rounded=0;" parent="1" edge="1">
          <mxGeometry width="50" height="50" relative="1" as="geometry">
            <mxPoint x="325.08000000000004" y="2360" as="sourcePoint" />
            <mxPoint x="324.7099999999999" y="2320" as="targetPoint" />
          </mxGeometry>
        </mxCell>
        <mxCell id="rh09vBjYHS_wtcfZ574y-186" value="" style="endArrow=classic;html=1;rounded=0;" parent="1" edge="1">
          <mxGeometry width="50" height="50" relative="1" as="geometry">
            <mxPoint x="370.08000000000004" y="2360" as="sourcePoint" />
            <mxPoint x="369.7099999999999" y="2320" as="targetPoint" />
          </mxGeometry>
        </mxCell>
        <mxCell id="rh09vBjYHS_wtcfZ574y-187" value="" style="endArrow=classic;html=1;rounded=0;entryX=0.198;entryY=1.01;entryDx=0;entryDy=0;entryPerimeter=0;" parent="1" edge="1">
          <mxGeometry width="50" height="50" relative="1" as="geometry">
            <mxPoint x="551.23" y="2360" as="sourcePoint" />
            <mxPoint x="551" y="2320" as="targetPoint" />
          </mxGeometry>
        </mxCell>
        <mxCell id="rh09vBjYHS_wtcfZ574y-188" value="" style="endArrow=classic;html=1;rounded=0;entryX=0.345;entryY=1.002;entryDx=0;entryDy=0;entryPerimeter=0;" parent="1" edge="1">
          <mxGeometry width="50" height="50" relative="1" as="geometry">
            <mxPoint x="591.23" y="2360" as="sourcePoint" />
            <mxPoint x="591.23" y="2320" as="targetPoint" />
          </mxGeometry>
        </mxCell>
        <mxCell id="rh09vBjYHS_wtcfZ574y-189" value="" style="endArrow=classic;html=1;rounded=0;" parent="1" edge="1">
          <mxGeometry width="50" height="50" relative="1" as="geometry">
            <mxPoint x="636.23" y="2360" as="sourcePoint" />
            <mxPoint x="635.8599999999999" y="2320" as="targetPoint" />
          </mxGeometry>
        </mxCell>
        <mxCell id="rh09vBjYHS_wtcfZ574y-190" value="" style="endArrow=classic;html=1;rounded=0;" parent="1" edge="1">
          <mxGeometry width="50" height="50" relative="1" as="geometry">
            <mxPoint x="681.23" y="2360" as="sourcePoint" />
            <mxPoint x="680.8599999999999" y="2320" as="targetPoint" />
          </mxGeometry>
        </mxCell>
        <mxCell id="rh09vBjYHS_wtcfZ574y-191" value="" style="endArrow=classic;html=1;rounded=0;entryX=0.198;entryY=1.01;entryDx=0;entryDy=0;entryPerimeter=0;" parent="1" edge="1">
          <mxGeometry width="50" height="50" relative="1" as="geometry">
            <mxPoint x="822.5500000000001" y="2360" as="sourcePoint" />
            <mxPoint x="822.32" y="2320" as="targetPoint" />
          </mxGeometry>
        </mxCell>
        <mxCell id="rh09vBjYHS_wtcfZ574y-192" value="" style="endArrow=classic;html=1;rounded=0;entryX=0.345;entryY=1.002;entryDx=0;entryDy=0;entryPerimeter=0;" parent="1" edge="1">
          <mxGeometry width="50" height="50" relative="1" as="geometry">
            <mxPoint x="862.5500000000001" y="2360" as="sourcePoint" />
            <mxPoint x="862.5500000000001" y="2320" as="targetPoint" />
          </mxGeometry>
        </mxCell>
        <mxCell id="rh09vBjYHS_wtcfZ574y-193" value="" style="endArrow=classic;html=1;rounded=0;" parent="1" edge="1">
          <mxGeometry width="50" height="50" relative="1" as="geometry">
            <mxPoint x="907.5500000000001" y="2360" as="sourcePoint" />
            <mxPoint x="907.18" y="2320" as="targetPoint" />
          </mxGeometry>
        </mxCell>
        <mxCell id="rh09vBjYHS_wtcfZ574y-194" value="" style="endArrow=classic;html=1;rounded=0;" parent="1" edge="1">
          <mxGeometry width="50" height="50" relative="1" as="geometry">
            <mxPoint x="952.5500000000001" y="2360" as="sourcePoint" />
            <mxPoint x="952.18" y="2320" as="targetPoint" />
          </mxGeometry>
        </mxCell>
        <mxCell id="rh09vBjYHS_wtcfZ574y-195" value="&lt;font style=&quot;font-size: 16px;&quot; face=&quot;Times New Roman&quot;&gt;Серверное приложение&lt;/font&gt;" style="text;html=1;whiteSpace=wrap;strokeColor=none;fillColor=none;align=center;verticalAlign=middle;rounded=0;" parent="1" vertex="1">
          <mxGeometry x="755" y="2375" width="60" height="30" as="geometry" />
        </mxCell>
        <mxCell id="rh09vBjYHS_wtcfZ574y-196" value="&lt;font style=&quot;font-size: 16px;&quot; face=&quot;Times New Roman&quot;&gt;Клиентское приложение&lt;/font&gt;" style="text;html=1;whiteSpace=wrap;strokeColor=none;fillColor=none;align=center;verticalAlign=middle;rounded=0;" parent="1" vertex="1">
          <mxGeometry x="855" y="2375" width="60" height="30" as="geometry" />
        </mxCell>
        <mxCell id="rh09vBjYHS_wtcfZ574y-197" value="&lt;font style=&quot;font-size: 16px;&quot; face=&quot;Times New Roman&quot;&gt;Криптобиблиотеки&lt;/font&gt;" style="text;html=1;whiteSpace=wrap;strokeColor=none;fillColor=none;align=center;verticalAlign=middle;rounded=0;" parent="1" vertex="1">
          <mxGeometry x="620" y="2380" width="95" height="20" as="geometry" />
        </mxCell>
        <mxCell id="rh09vBjYHS_wtcfZ574y-198" value="&lt;div&gt;&lt;font style=&quot;font-size: 16px;&quot; face=&quot;Times New Roman&quot;&gt;База данных&lt;/font&gt;&lt;/div&gt;" style="text;html=1;whiteSpace=wrap;strokeColor=none;fillColor=none;align=center;verticalAlign=middle;rounded=0;" parent="1" vertex="1">
          <mxGeometry x="525" y="2375" width="60" height="30" as="geometry" />
        </mxCell>
        <mxCell id="rh09vBjYHS_wtcfZ574y-216" value="" style="endArrow=classic;html=1;rounded=0;entryX=0.198;entryY=1.01;entryDx=0;entryDy=0;entryPerimeter=0;" parent="1" edge="1">
          <mxGeometry width="50" height="50" relative="1" as="geometry">
            <mxPoint x="1082.55" y="2360" as="sourcePoint" />
            <mxPoint x="1082.32" y="2320" as="targetPoint" />
          </mxGeometry>
        </mxCell>
        <mxCell id="rh09vBjYHS_wtcfZ574y-217" value="" style="endArrow=classic;html=1;rounded=0;entryX=0.345;entryY=1.002;entryDx=0;entryDy=0;entryPerimeter=0;" parent="1" edge="1">
          <mxGeometry width="50" height="50" relative="1" as="geometry">
            <mxPoint x="1122.55" y="2360" as="sourcePoint" />
            <mxPoint x="1122.55" y="2320" as="targetPoint" />
          </mxGeometry>
        </mxCell>
        <mxCell id="rh09vBjYHS_wtcfZ574y-218" value="" style="endArrow=classic;html=1;rounded=0;" parent="1" edge="1">
          <mxGeometry width="50" height="50" relative="1" as="geometry">
            <mxPoint x="1167.55" y="2360" as="sourcePoint" />
            <mxPoint x="1167.1799999999998" y="2320" as="targetPoint" />
          </mxGeometry>
        </mxCell>
        <mxCell id="rh09vBjYHS_wtcfZ574y-219" value="" style="endArrow=classic;html=1;rounded=0;" parent="1" edge="1">
          <mxGeometry width="50" height="50" relative="1" as="geometry">
            <mxPoint x="1217.87" y="2360" as="sourcePoint" />
            <mxPoint x="1217.4999999999998" y="2320" as="targetPoint" />
          </mxGeometry>
        </mxCell>
        <mxCell id="rh09vBjYHS_wtcfZ574y-221" value="" style="endArrow=classic;html=1;rounded=0;entryX=0.055;entryY=-0.011;entryDx=0;entryDy=0;entryPerimeter=0;" parent="1" edge="1">
          <mxGeometry width="50" height="50" relative="1" as="geometry">
            <mxPoint x="239.56000000000003" y="2110" as="sourcePoint" />
            <mxPoint x="239.82000000000002" y="2160" as="targetPoint" />
          </mxGeometry>
        </mxCell>
        <mxCell id="rh09vBjYHS_wtcfZ574y-222" value="" style="endArrow=classic;html=1;rounded=0;entryX=0.278;entryY=0;entryDx=0;entryDy=0;entryPerimeter=0;" parent="1" edge="1">
          <mxGeometry width="50" height="50" relative="1" as="geometry">
            <mxPoint x="279.56" y="2110" as="sourcePoint" />
            <mxPoint x="279.8200000000001" y="2160" as="targetPoint" />
          </mxGeometry>
        </mxCell>
        <mxCell id="rh09vBjYHS_wtcfZ574y-223" value="" style="endArrow=classic;html=1;rounded=0;entryX=0.278;entryY=0;entryDx=0;entryDy=0;entryPerimeter=0;" parent="1" edge="1">
          <mxGeometry width="50" height="50" relative="1" as="geometry">
            <mxPoint x="324.56" y="2110" as="sourcePoint" />
            <mxPoint x="324.8200000000001" y="2160" as="targetPoint" />
          </mxGeometry>
        </mxCell>
        <mxCell id="rh09vBjYHS_wtcfZ574y-224" value="" style="endArrow=classic;html=1;rounded=0;entryX=0.278;entryY=0;entryDx=0;entryDy=0;entryPerimeter=0;" parent="1" edge="1">
          <mxGeometry width="50" height="50" relative="1" as="geometry">
            <mxPoint x="369.56" y="2110" as="sourcePoint" />
            <mxPoint x="369.8200000000002" y="2160" as="targetPoint" />
          </mxGeometry>
        </mxCell>
        <mxCell id="rh09vBjYHS_wtcfZ574y-225" value="" style="endArrow=classic;html=1;rounded=0;entryX=0.055;entryY=-0.011;entryDx=0;entryDy=0;entryPerimeter=0;" parent="1" edge="1">
          <mxGeometry width="50" height="50" relative="1" as="geometry">
            <mxPoint x="550.9300000000001" y="2110" as="sourcePoint" />
            <mxPoint x="551.19" y="2160" as="targetPoint" />
          </mxGeometry>
        </mxCell>
        <mxCell id="rh09vBjYHS_wtcfZ574y-226" value="" style="endArrow=classic;html=1;rounded=0;entryX=0.278;entryY=0;entryDx=0;entryDy=0;entryPerimeter=0;" parent="1" edge="1">
          <mxGeometry width="50" height="50" relative="1" as="geometry">
            <mxPoint x="590.9300000000001" y="2110" as="sourcePoint" />
            <mxPoint x="591.19" y="2160" as="targetPoint" />
          </mxGeometry>
        </mxCell>
        <mxCell id="rh09vBjYHS_wtcfZ574y-227" value="" style="endArrow=classic;html=1;rounded=0;entryX=0.278;entryY=0;entryDx=0;entryDy=0;entryPerimeter=0;" parent="1" edge="1">
          <mxGeometry width="50" height="50" relative="1" as="geometry">
            <mxPoint x="635.9300000000001" y="2110" as="sourcePoint" />
            <mxPoint x="636.19" y="2160" as="targetPoint" />
          </mxGeometry>
        </mxCell>
        <mxCell id="rh09vBjYHS_wtcfZ574y-228" value="" style="endArrow=classic;html=1;rounded=0;entryX=0.278;entryY=0;entryDx=0;entryDy=0;entryPerimeter=0;" parent="1" edge="1">
          <mxGeometry width="50" height="50" relative="1" as="geometry">
            <mxPoint x="680.9300000000001" y="2110" as="sourcePoint" />
            <mxPoint x="681.1900000000003" y="2160" as="targetPoint" />
          </mxGeometry>
        </mxCell>
        <mxCell id="rh09vBjYHS_wtcfZ574y-229" value="" style="endArrow=classic;html=1;rounded=0;entryX=0.055;entryY=-0.011;entryDx=0;entryDy=0;entryPerimeter=0;" parent="1" edge="1">
          <mxGeometry width="50" height="50" relative="1" as="geometry">
            <mxPoint x="822.18" y="2110" as="sourcePoint" />
            <mxPoint x="822.4399999999999" y="2160" as="targetPoint" />
          </mxGeometry>
        </mxCell>
        <mxCell id="rh09vBjYHS_wtcfZ574y-230" value="" style="endArrow=classic;html=1;rounded=0;entryX=0.278;entryY=0;entryDx=0;entryDy=0;entryPerimeter=0;" parent="1" edge="1">
          <mxGeometry width="50" height="50" relative="1" as="geometry">
            <mxPoint x="862.18" y="2110" as="sourcePoint" />
            <mxPoint x="862.4399999999999" y="2160" as="targetPoint" />
          </mxGeometry>
        </mxCell>
        <mxCell id="rh09vBjYHS_wtcfZ574y-231" value="" style="endArrow=classic;html=1;rounded=0;entryX=0.278;entryY=0;entryDx=0;entryDy=0;entryPerimeter=0;" parent="1" edge="1">
          <mxGeometry width="50" height="50" relative="1" as="geometry">
            <mxPoint x="907.18" y="2110" as="sourcePoint" />
            <mxPoint x="907.4399999999999" y="2160" as="targetPoint" />
          </mxGeometry>
        </mxCell>
        <mxCell id="rh09vBjYHS_wtcfZ574y-232" value="" style="endArrow=classic;html=1;rounded=0;entryX=0.278;entryY=0;entryDx=0;entryDy=0;entryPerimeter=0;" parent="1" edge="1">
          <mxGeometry width="50" height="50" relative="1" as="geometry">
            <mxPoint x="952.18" y="2110" as="sourcePoint" />
            <mxPoint x="952.4400000000002" y="2160" as="targetPoint" />
          </mxGeometry>
        </mxCell>
        <mxCell id="rh09vBjYHS_wtcfZ574y-233" value="" style="endArrow=classic;html=1;rounded=0;entryX=0.055;entryY=-0.011;entryDx=0;entryDy=0;entryPerimeter=0;" parent="1" edge="1">
          <mxGeometry width="50" height="50" relative="1" as="geometry">
            <mxPoint x="1082.18" y="2110" as="sourcePoint" />
            <mxPoint x="1082.44" y="2160" as="targetPoint" />
          </mxGeometry>
        </mxCell>
        <mxCell id="rh09vBjYHS_wtcfZ574y-234" value="" style="endArrow=classic;html=1;rounded=0;entryX=0.278;entryY=0;entryDx=0;entryDy=0;entryPerimeter=0;" parent="1" edge="1">
          <mxGeometry width="50" height="50" relative="1" as="geometry">
            <mxPoint x="1122.18" y="2110" as="sourcePoint" />
            <mxPoint x="1122.44" y="2160" as="targetPoint" />
          </mxGeometry>
        </mxCell>
        <mxCell id="rh09vBjYHS_wtcfZ574y-235" value="" style="endArrow=classic;html=1;rounded=0;entryX=0.278;entryY=0;entryDx=0;entryDy=0;entryPerimeter=0;" parent="1" edge="1">
          <mxGeometry width="50" height="50" relative="1" as="geometry">
            <mxPoint x="1167.18" y="2110" as="sourcePoint" />
            <mxPoint x="1167.44" y="2160" as="targetPoint" />
          </mxGeometry>
        </mxCell>
        <mxCell id="rh09vBjYHS_wtcfZ574y-236" value="" style="endArrow=classic;html=1;rounded=0;entryX=0.278;entryY=0;entryDx=0;entryDy=0;entryPerimeter=0;" parent="1" edge="1">
          <mxGeometry width="50" height="50" relative="1" as="geometry">
            <mxPoint x="1220" y="2110" as="sourcePoint" />
            <mxPoint x="1220.2600000000002" y="2160" as="targetPoint" />
          </mxGeometry>
        </mxCell>
        <mxCell id="rh09vBjYHS_wtcfZ574y-237" value="" style="endArrow=none;html=1;rounded=0;" parent="1" edge="1">
          <mxGeometry width="50" height="50" relative="1" as="geometry">
            <mxPoint x="240" y="2110" as="sourcePoint" />
            <mxPoint x="1220" y="2110" as="targetPoint" />
          </mxGeometry>
        </mxCell>
        <mxCell id="rh09vBjYHS_wtcfZ574y-238" value="&lt;font style=&quot;font-size: 16px;&quot; face=&quot;Times New Roman&quot;&gt;Политика безопасности и шифрования&lt;br&gt;&lt;/font&gt;" style="text;html=1;whiteSpace=wrap;strokeColor=none;fillColor=none;align=center;verticalAlign=middle;rounded=0;" parent="1" vertex="1">
          <mxGeometry x="532.5" y="2060" width="120" height="30" as="geometry" />
        </mxCell>
        <mxCell id="rh09vBjYHS_wtcfZ574y-239" value="&lt;div align=&quot;center&quot;&gt;&lt;font style=&quot;font-size: 16px;&quot; face=&quot;Times New Roman&quot;&gt;Законы&lt;/font&gt;&lt;/div&gt;" style="text;whiteSpace=wrap;html=1;align=center;" parent="1" vertex="1">
          <mxGeometry x="880" y="2060" width="60" height="40" as="geometry" />
        </mxCell>
        <mxCell id="rh09vBjYHS_wtcfZ574y-240" value="&lt;div align=&quot;center&quot;&gt;&lt;font style=&quot;font-size: 16px;&quot; face=&quot;Times New Roman&quot;&gt;Метод шифрования&lt;/font&gt;&lt;/div&gt;" style="text;html=1;whiteSpace=wrap;strokeColor=none;fillColor=none;align=center;verticalAlign=middle;rounded=0;" parent="1" vertex="1">
          <mxGeometry x="790" y="2060" width="60" height="30" as="geometry" />
        </mxCell>
        <mxCell id="rh09vBjYHS_wtcfZ574y-241" value="&lt;font style=&quot;font-size: 16px;&quot; face=&quot;Times New Roman&quot;&gt;Протоколы обмена информацией&lt;font&gt;&lt;br&gt;&lt;/font&gt;&lt;/font&gt;" style="text;html=1;whiteSpace=wrap;strokeColor=none;fillColor=none;align=center;verticalAlign=middle;rounded=0;" parent="1" vertex="1">
          <mxGeometry x="682.5" y="2060" width="60" height="30" as="geometry" />
        </mxCell>
        <mxCell id="LPoYvkeDd_LzR_U_FfOz-2" value="" style="endArrow=classic;html=1;rounded=0;" edge="1" parent="1">
          <mxGeometry width="50" height="50" relative="1" as="geometry">
            <mxPoint x="140" y="160" as="sourcePoint" />
            <mxPoint x="230" y="160" as="targetPoint" />
          </mxGeometry>
        </mxCell>
        <mxCell id="LPoYvkeDd_LzR_U_FfOz-3" value="&lt;font style=&quot;font-size: 16px;&quot; face=&quot;Times New Roman&quot;&gt;&lt;font&gt;Сообщения клиента&lt;/font&gt;&lt;br&gt;&lt;/font&gt;" style="text;html=1;whiteSpace=wrap;strokeColor=none;fillColor=none;align=center;verticalAlign=middle;rounded=0;" vertex="1" parent="1">
          <mxGeometry x="40" y="140" width="100" height="30" as="geometry" />
        </mxCell>
        <mxCell id="LPoYvkeDd_LzR_U_FfOz-5" value="&lt;font style=&quot;font-size: 16px;&quot; face=&quot;Times New Roman&quot;&gt;&lt;font&gt;Сообщения клиента&lt;/font&gt;&lt;br&gt;&lt;/font&gt;" style="text;html=1;whiteSpace=wrap;strokeColor=none;fillColor=none;align=center;verticalAlign=middle;rounded=0;" vertex="1" parent="1">
          <mxGeometry x="50" y="640" width="100" height="30" as="geometry" />
        </mxCell>
      </root>
    </mxGraphModel>
  </diagram>
</mxfile>
